<svg width="29" height="10" viewBox="0 0 29 10" fill="none" xmlns="http://www.w3.org/2000/svg">
<g clip-path="url(#clip0_3006_16)">
<g filter="url(#filter0_d_3006_16)">
<path d="M4.85786 0.273615V9.00089H2.48855V2.45544H2.43741L0.52832 3.59748V1.58612L2.67605 0.273615H4.85786ZM10.4509 9.23953C9.65829 9.23669 8.97363 9.05345 8.39693 8.68981C7.82022 8.32617 7.37562 7.80203 7.06312 7.11737C6.75062 6.43271 6.59579 5.61169 6.59863 4.6543C6.60147 3.69407 6.75772 2.87873 7.06738 2.20828C7.37988 1.53782 7.82306 1.02788 8.39693 0.678445C8.97363 0.329013 9.65829 0.154297 10.4509 0.154297C11.2435 0.154297 11.9282 0.330433 12.5049 0.682706C13.0816 1.03214 13.5262 1.54208 13.8387 2.21254C14.1512 2.88299 14.306 3.69691 14.3032 4.6543C14.3032 5.61737 14.1469 6.44123 13.8344 7.12589C13.5219 7.81055 13.0773 8.3347 12.5006 8.69833C11.9267 9.05913 11.2435 9.23953 10.4509 9.23953ZM10.4509 7.31339C10.86 7.31339 11.1952 7.10032 11.4566 6.67419C11.7208 6.24521 11.8515 5.57191 11.8486 4.6543C11.8486 4.05487 11.789 3.56481 11.6696 3.18413C11.5503 2.80345 11.3856 2.5222 11.1753 2.34038C10.9651 2.15572 10.7236 2.06339 10.4509 2.06339C10.0418 2.06339 9.70801 2.27078 9.44948 2.68555C9.19096 3.10032 9.05886 3.75657 9.05318 4.6543C9.05034 5.26509 9.10857 5.76794 9.22789 6.16282C9.34721 6.55487 9.51198 6.84464 9.72221 7.03214C9.93528 7.21964 10.1782 7.31339 10.4509 7.31339ZM19.2165 9.23953C18.4239 9.23669 17.7392 9.05345 17.1625 8.68981C16.5858 8.32617 16.1412 7.80203 15.8287 7.11737C15.5162 6.43271 15.3614 5.61169 15.3642 4.6543C15.3671 3.69407 15.5233 2.87873 15.833 2.20828C16.1455 1.53782 16.5887 1.02788 17.1625 0.678445C17.7392 0.329013 18.4239 0.154297 19.2165 0.154297C20.0091 0.154297 20.6938 0.330433 21.2705 0.682706C21.8472 1.03214 22.2918 1.54208 22.6043 2.21254C22.9168 2.88299 23.0716 3.69691 23.0688 4.6543C23.0688 5.61737 22.9125 6.44123 22.6 7.12589C22.2875 7.81055 21.8429 8.3347 21.2662 8.69833C20.6924 9.05913 20.0091 9.23953 19.2165 9.23953ZM19.2165 7.31339C19.6256 7.31339 19.9608 7.10032 20.2222 6.67419C20.4864 6.24521 20.6171 5.57191 20.6142 4.6543C20.6142 4.05487 20.5546 3.56481 20.4353 3.18413C20.316 2.80345 20.1512 2.5222 19.941 2.34038C19.7307 2.15572 19.4892 2.06339 19.2165 2.06339C18.8074 2.06339 18.4736 2.27078 18.2151 2.68555C17.9566 3.10032 17.8245 3.75657 17.8188 4.6543C17.816 5.26509 17.8742 5.76794 17.9935 6.16282C18.1128 6.55487 18.2776 6.84464 18.4878 7.03214C18.7009 7.21964 18.9438 7.31339 19.2165 7.31339ZM28.4594 0.273615V9.00089H26.0901V2.45544H26.039L24.1299 3.59748V1.58612L26.2776 0.273615H28.4594Z" fill="url(#paint0_diamond_3006_16)" shape-rendering="crispEdges"/>
<path d="M9.44948 2.68555L9.36462 2.63265C9.63726 2.19523 10.0001 1.96339 10.4509 1.96339C10.7484 1.96339 11.0131 2.06492 11.241 2.26497C11.4701 2.46315 11.6425 2.76328 11.765 3.1542C11.765 3.15421 11.765 3.15422 11.765 3.15422L11.6696 3.18413C11.789 3.56481 11.8486 4.05487 11.8486 4.6543L9.44948 2.68555ZM9.44948 2.68555L9.36462 2.63265C9.09112 3.07144 8.9589 3.75066 8.95318 4.65367V4.65383M9.44948 2.68555L8.95318 4.65383M8.95318 4.65383C8.95032 5.27027 9.00894 5.78394 9.13217 6.19174L9.13222 6.19193M8.95318 4.65383L9.13222 6.19193M9.13222 6.19193C9.2546 6.59403 9.42686 6.90271 9.65565 7.10677L9.65615 7.10721M9.13222 6.19193L9.65615 7.10721M9.65615 7.10721C9.88666 7.31006 10.1528 7.41339 10.4509 7.41339C10.9029 7.41339 11.267 7.17461 11.5419 6.72648L9.65615 7.10721ZM17.7188 4.65384V4.65366C17.7245 3.75066 17.8568 3.07144 18.1302 2.63266C18.4029 2.19523 18.7657 1.96339 19.2165 1.96339C19.5141 1.96339 19.7787 2.06493 20.0067 2.26497C20.2357 2.46314 20.4082 2.76326 20.5307 3.15422C20.6542 3.54807 20.7142 4.04912 20.7142 4.65398C20.7142 4.65409 20.7142 4.65419 20.7142 4.6543H20.6142C20.6171 5.57191 20.4864 6.24521 20.2222 6.67419L17.7188 4.65384ZM17.7188 4.65384C17.716 5.27027 17.7746 5.78394 17.8978 6.19174L17.8978 6.19193C18.0202 6.59403 18.1925 6.90271 18.4212 7.10676L18.4218 7.10721C18.6523 7.31006 18.9184 7.41339 19.2165 7.41339C19.6684 7.41339 20.0325 7.17466 20.3074 6.72663L17.7188 4.65384ZM2.70419 0.373615H4.75786V8.90089H2.58855V2.45544V2.35544H2.48855H2.43741H2.40978L2.38607 2.36962L0.62832 3.42113V1.6422L2.70419 0.373615ZM12.4528 0.768045L12.4531 0.768231C13.0112 1.10641 13.4431 1.60046 13.7481 2.25478C14.0528 2.9086 14.206 3.70715 14.2032 4.65401V4.6543C14.2032 5.6069 14.0486 6.41584 13.7434 7.08437C13.4382 7.75322 13.0058 8.26156 12.4473 8.61374C11.8919 8.96286 11.2279 9.13951 10.451 9.13953C9.67415 9.1367 9.00861 8.95728 8.45027 8.60522C7.89172 8.25303 7.45938 7.7447 7.15409 7.07585C6.84898 6.40737 6.69582 5.60135 6.69863 4.65459C6.70144 3.70469 6.85603 2.90445 7.15809 2.25038C7.46309 1.59606 7.89357 1.10207 8.44879 0.763949C9.00729 0.425549 9.67334 0.254297 10.4509 0.254297C11.2283 0.254297 11.8943 0.426911 12.4528 0.768045ZM21.2184 0.768045L21.2187 0.768231C21.7768 1.10641 22.2087 1.60046 22.5137 2.25478C22.8184 2.9086 22.9716 3.70715 22.9688 4.65401V4.6543C22.9688 5.6069 22.8142 6.41584 22.509 7.08437C22.2038 7.75322 21.7714 8.26156 21.2129 8.61374C20.6576 8.96286 19.9935 9.13951 19.2166 9.13953C18.4398 9.1367 17.7742 8.95728 17.2158 8.60522C16.6573 8.25303 16.225 7.7447 15.9197 7.07585C15.6146 6.40737 15.4614 5.60135 15.4642 4.65459C15.4671 3.70472 15.6216 2.9045 15.9237 2.25045C16.2287 1.59611 16.6592 1.1021 17.2143 0.76397C17.7728 0.425558 18.4389 0.254297 19.2165 0.254297C19.9939 0.254297 20.6599 0.426911 21.2184 0.768045ZM26.3057 0.373615H28.3594V8.90089H26.1901V2.45544V2.35544H26.0901H26.039H26.0114L25.9877 2.36962L24.2299 3.42113V1.6422L26.3057 0.373615Z" stroke="black" stroke-width="0.2" shape-rendering="crispEdges"/>
</g>
</g>
<defs>
<filter id="filter0_d_3006_16" x="0.52832" y="0.154297" width="29.9312" height="11.0859" filterUnits="userSpaceOnUse" color-interpolation-filters="sRGB">
<feFlood flood-opacity="0" result="BackgroundImageFix"/>
<feColorMatrix in="SourceAlpha" type="matrix" values="0 0 0 0 0 0 0 0 0 0 0 0 0 0 0 0 0 0 127 0" result="hardAlpha"/>
<feOffset dx="1" dy="1"/>
<feGaussianBlur stdDeviation="0.5"/>
<feComposite in2="hardAlpha" operator="out"/>
<feColorMatrix type="matrix" values="0 0 0 0 0 0 0 0 0 0 0 0 0 0 0 0 0 0 0.25 0"/>
<feBlend mode="normal" in2="BackgroundImageFix" result="effect1_dropShadow_3006_16"/>
<feBlend mode="normal" in="SourceGraphic" in2="effect1_dropShadow_3006_16" result="shape"/>
</filter>
<radialGradient id="paint0_diamond_3006_16" cx="0" cy="0" r="1" gradientUnits="userSpaceOnUse" gradientTransform="translate(14.4939 4.69691) rotate(90) scale(4.54262 13.9655)">
<stop stop-color="#FF0000"/>
<stop offset="0.460057" stop-color="#FAFF00" stop-opacity="0.4"/>
<stop offset="1" stop-color="#FC2E11"/>
</radialGradient>
<clipPath id="clip0_3006_16">
<rect width="29" height="10" fill="white"/>
</clipPath>
</defs>
</svg>
