<?xml version="1.0" standalone="no"?>
<!DOCTYPE svg PUBLIC "-//W3C//DTD SVG 20010904//EN"
 "http://www.w3.org/TR/2001/REC-SVG-20010904/DTD/svg10.dtd">
<svg version="1.0" xmlns="http://www.w3.org/2000/svg"
 width="700.000000pt" height="700.000000pt" viewBox="0 0 700.000000 700.000000"
 preserveAspectRatio="xMidYMid meet">
<metadata>
Created by potrace 1.14, written by Peter Selinger 2001-2017
</metadata>
<g transform="translate(0.000000,700.000000) scale(0.100000,-0.100000)"
fill="#000000" stroke="none">
<path d="M0 3500 l0 -3500 3500 0 3500 0 0 3500 0 3500 -3500 0 -3500 0 0
-3500z m2920 782 c186 -60 344 -219 407 -407 23 -68 27 -97 27 -200 0 -109 -3
-128 -30 -205 -69 -195 -220 -343 -409 -403 -99 -31 -271 -31 -370 0 -188 59
-341 209 -409 403 -27 76 -30 97 -30 205 0 108 3 129 30 205 73 207 231 355
438 411 93 25 251 21 346 -9z m1255 13 c215 -54 391 -220 458 -430 18 -56 22
-94 22 -190 0 -96 -4 -134 -22 -190 -31 -97 -86 -187 -163 -264 -110 -111
-243 -169 -405 -178 -188 -10 -338 48 -476 186 -58 58 -86 96 -118 161 -42 87
-71 202 -71 285 0 83 29 198 71 285 77 156 235 286 400 330 91 23 223 26 304
5z m-2145 -620 l0 -595 -315 0 -315 0 0 310 0 310 -76 0 c-74 0 -75 1 -68 23
3 12 47 140 96 285 l90 262 294 0 294 0 0 -595z m3488 -27 l-3 -593 -312 -3
-313 -2 -2 307 -3 308 -75 5 -76 5 91 265 c50 146 94 273 98 283 6 16 30 17
302 17 l295 0 -2 -592z m472 -753 l0 -125 -125 0 -125 0 0 125 0 125 125 0
125 0 0 -125z m-1320 75 c0 -5 -4 -10 -10 -10 -5 0 -10 5 -10 10 0 6 5 10 10
10 6 0 10 -4 10 -10z m-181 -38 c-14 -6 -10 -70 4 -75 6 -2 9 -8 5 -12 -17
-19 -38 6 -38 45 0 25 -5 40 -12 41 -10 0 -10 2 0 6 6 2 12 12 12 21 0 13 3
12 19 -4 10 -10 14 -20 10 -22z m61 19 c0 -14 6 -17 26 -13 16 3 30 -1 35 -9
12 -19 11 -89 -1 -89 -5 0 -10 15 -10 34 0 39 -20 62 -38 44 -7 -7 -12 -27
-12 -45 0 -18 -4 -33 -10 -33 -6 0 -10 28 -10 65 0 37 4 65 10 65 6 0 10 -8
10 -19z m-1105 -41 c4 -16 10 -30 15 -30 5 0 11 14 15 30 6 27 25 43 25 20 0
-18 -42 -115 -53 -122 -18 -11 -30 3 -12 16 14 10 14 15 0 55 -17 50 -18 61
-6 61 5 0 12 -13 16 -30z m168 9 c5 -9 7 -28 3 -42 -7 -31 -48 -46 -71 -27
-18 15 -20 61 -3 78 17 17 58 11 71 -9z m57 -14 c0 -23 6 -38 15 -42 21 -7 27
0 35 44 8 38 8 38 9 -12 1 -48 0 -50 -27 -52 -15 -1 -33 3 -39 9 -15 12 -17
88 -3 88 6 0 10 -16 10 -35z m150 25 c0 -4 -7 -10 -15 -14 -9 -3 -15 -19 -15
-41 0 -19 -4 -35 -10 -35 -5 0 -10 22 -10 49 0 45 2 49 25 49 14 0 25 -4 25
-8z m170 -9 c15 -29 13 -31 -25 -31 -26 0 -35 -4 -35 -16 0 -13 7 -15 31 -10
22 4 29 2 27 -7 -6 -17 -46 -21 -64 -7 -17 15 -19 61 -2 78 18 18 56 14 68 -7z
m61 -18 l13 -38 14 38 c8 20 19 37 24 37 5 0 7 -6 4 -12 -2 -7 -10 -30 -17
-50 -7 -21 -17 -38 -24 -38 -7 0 -17 17 -24 38 -7 20 -15 43 -17 50 -3 6 -1
12 4 12 6 0 16 -17 23 -37z m157 25 c21 -21 13 -37 -20 -40 -40 -4 -34 -24 6
-21 26 1 27 0 13 -14 -22 -22 -65 -9 -73 21 -12 50 40 88 74 54z m85 -5 c-16
-11 -23 -25 -23 -50 0 -20 -4 -32 -10 -28 -5 3 -10 25 -10 49 0 42 1 43 33 44
32 0 32 0 10 -15z m72 -24 l12 -34 12 38 c13 39 37 53 26 15 -18 -59 -45 -108
-60 -108 -15 0 -15 2 -2 15 13 13 13 21 -4 66 -13 34 -16 50 -8 47 7 -2 18
-20 24 -39z m305 -10 c0 -31 -4 -48 -10 -44 -5 3 -10 26 -10 51 0 24 5 44 10
44 6 0 10 -23 10 -51z m118 -1 c2 -29 -1 -48 -7 -48 -6 0 -11 17 -11 38 0 43
-6 53 -26 45 -9 -3 -14 -20 -14 -44 0 -21 -4 -39 -10 -39 -5 0 -10 22 -10 49
l0 49 38 -1 c37 -2 37 -2 40 -49z m132 -4 c0 -56 -17 -84 -49 -84 -10 0 -24 6
-30 14 -10 12 -6 14 20 13 20 -1 34 3 37 12 3 10 0 12 -12 8 -30 -12 -56 10
-56 47 0 42 5 46 52 44 l38 -1 0 -53z m168 4 l3 -46 -38 1 c-31 2 -39 6 -41
25 -3 18 2 23 27 28 32 7 39 18 21 29 -6 4 -17 2 -25 -5 -7 -6 -16 -7 -19 -2
-9 15 6 23 39 20 28 -3 30 -6 33 -50z m122 -9 c0 -48 -3 -60 -20 -69 -22 -12
-60 -5 -60 10 0 5 14 7 30 4 24 -5 30 -3 30 11 0 12 -5 15 -16 11 -19 -7 -54
20 -54 41 0 34 20 52 55 51 l35 -1 0 -58z m121 34 c8 -21 5 -23 -26 -23 -26 0
-35 -4 -35 -16 0 -13 7 -15 31 -10 22 4 29 2 27 -7 -6 -17 -46 -21 -64 -7 -17
15 -18 62 -2 78 19 19 60 10 69 -15z m117 -25 c2 -29 -1 -48 -7 -48 -6 0 -11
18 -11 39 0 24 -5 41 -14 44 -20 8 -26 -2 -26 -45 0 -21 -4 -38 -10 -38 -5 0
-10 22 -10 49 l0 49 38 -1 c37 -2 37 -2 40 -49z m112 37 c15 -18 -1 -20 -18
-3 -18 18 -46 -13 -37 -42 6 -18 12 -21 37 -16 26 5 29 4 18 -9 -19 -23 -48
-18 -66 10 -33 50 28 105 66 60z m65 -15 c4 -16 10 -30 15 -30 5 0 11 14 15
30 6 27 25 43 25 20 0 -23 -42 -119 -54 -123 -21 -8 -28 4 -10 17 13 10 13 16
-1 55 -17 50 -18 61 -6 61 5 0 12 -13 16 -30z"/>
<path d="M4132 3718 c5 -15 28 -18 29 -3 0 6 -7 12 -17 13 -10 3 -15 -1 -12
-10z"/>
<path d="M3812 3644 c2 -59 7 -79 20 -88 21 -13 36 0 20 16 -7 7 -12 41 -12
80 0 55 -3 68 -15 68 -13 0 -15 -13 -13 -76z"/>
<path d="M3530 3691 c-14 -27 -4 -45 35 -64 49 -23 47 -50 -2 -45 -44 3 -50
-12 -11 -26 20 -7 33 -5 52 8 38 25 34 60 -9 80 -45 22 -48 51 -5 43 31 -7 50
7 24 17 -33 12 -73 6 -84 -13z"/>
<path d="M4031 3678 c-10 -16 -10 -23 -2 -26 6 -2 11 -21 11 -42 0 -40 20 -66
45 -56 19 7 20 26 0 26 -19 0 -21 66 -2 74 10 5 10 7 0 12 -7 3 -13 12 -13 20
0 21 -23 17 -39 -8z"/>
<path d="M3680 3660 c-11 -11 -20 -31 -20 -45 0 -26 31 -65 53 -65 29 0 57 31
57 64 0 58 -51 85 -90 46z m60 -46 c0 -27 -4 -34 -19 -34 -24 0 -36 32 -21 59
16 30 40 15 40 -25z"/>
<path d="M4229 3670 c-22 -13 -31 -53 -20 -83 22 -58 101 -36 101 28 0 53 -39
80 -81 55z m51 -56 c0 -27 -4 -34 -19 -34 -24 0 -36 32 -21 59 16 30 40 15 40
-25z"/>
<path d="M4396 3671 c-3 -5 -15 -7 -26 -4 -18 5 -20 0 -20 -51 0 -43 3 -56 15
-56 11 0 15 11 15 39 0 37 19 68 33 54 4 -3 7 -26 7 -50 0 -32 4 -43 15 -43
19 0 21 90 3 108 -14 14 -35 16 -42 3z"/>
<path d="M4508 3669 c-27 -15 -22 -38 12 -57 36 -20 34 -38 -3 -34 -15 2 -27
-1 -27 -7 0 -16 46 -24 69 -11 31 16 26 47 -9 65 -33 17 -31 40 2 29 15 -4 19
-2 16 7 -6 18 -38 22 -60 8z"/>
<path d="M3890 3621 c0 -59 14 -72 63 -64 l37 6 0 53 c0 41 -4 54 -15 54 -11
0 -15 -12 -15 -44 0 -28 -5 -46 -14 -49 -21 -8 -26 2 -26 50 0 32 -4 43 -15
43 -11 0 -15 -12 -15 -49z"/>
<path d="M4130 3615 c0 -42 3 -55 15 -55 12 0 15 13 15 55 0 42 -3 55 -15 55
-12 0 -15 -13 -15 -55z"/>
<path d="M3561 2921 c-7 -5 -11 -19 -9 -32 4 -31 42 -33 46 -3 4 25 -19 46
-37 35z"/>
<path d="M3937 2923 c-14 -13 -6 -23 19 -23 22 0 25 2 14 15 -14 16 -23 19
-33 8z"/>
<path d="M4160 2915 c-11 -13 -9 -15 15 -15 16 0 25 5 23 12 -7 19 -24 20 -38
3z"/>
<path d="M4854 2916 c-9 -24 0 -51 18 -54 21 -4 34 34 18 53 -16 19 -29 19
-36 1z"/>
<path d="M5043 2883 c-20 -8 -15 -23 7 -23 11 0 20 7 20 15 0 15 -6 17 -27 8z"/>
<path d="M5150 2915 c-16 -19 -3 -57 18 -53 22 4 28 53 8 61 -8 3 -20 0 -26
-8z"/>
<path d="M5277 2923 c-14 -13 -6 -23 19 -23 22 0 25 2 14 15 -14 16 -23 19
-33 8z"/>
</g>
</svg>
