<svg width="500" height="120" viewBox="0 0 500 120" fill="none" xmlns="http://www.w3.org/2000/svg">
<path d="M237.257 112.659C237.051 112.659 236.863 112.642 236.694 112.608C236.524 112.578 236.398 112.544 236.315 112.507L236.648 111.376C236.9 111.443 237.125 111.473 237.322 111.463C237.519 111.454 237.692 111.38 237.843 111.242C237.997 111.103 238.132 110.877 238.249 110.563L238.42 110.092L235.826 102.909H237.303L239.099 108.412H239.173L240.969 102.909H242.45L239.528 110.946C239.393 111.316 239.22 111.628 239.011 111.884C238.802 112.142 238.553 112.336 238.263 112.465C237.974 112.594 237.639 112.659 237.257 112.659ZM247.273 110.143C246.609 110.143 246.028 109.991 245.533 109.686C245.037 109.381 244.653 108.955 244.379 108.407C244.105 107.859 243.968 107.219 243.968 106.487C243.968 105.751 244.105 105.108 244.379 104.557C244.653 104.006 245.037 103.578 245.533 103.274C246.028 102.969 246.609 102.817 247.273 102.817C247.938 102.817 248.518 102.969 249.014 103.274C249.509 103.578 249.894 104.006 250.168 104.557C250.442 105.108 250.579 105.751 250.579 106.487C250.579 107.219 250.442 107.859 250.168 108.407C249.894 108.955 249.509 109.381 249.014 109.686C248.518 109.991 247.938 110.143 247.273 110.143ZM247.278 108.984C247.709 108.984 248.066 108.871 248.349 108.643C248.632 108.415 248.841 108.112 248.977 107.733C249.115 107.355 249.185 106.938 249.185 106.482C249.185 106.03 249.115 105.614 248.977 105.236C248.841 104.854 248.632 104.548 248.349 104.317C248.066 104.086 247.709 103.971 247.278 103.971C246.844 103.971 246.484 104.086 246.198 104.317C245.915 104.548 245.704 104.854 245.565 105.236C245.43 105.614 245.362 106.03 245.362 106.482C245.362 106.938 245.43 107.355 245.565 107.733C245.704 108.112 245.915 108.415 246.198 108.643C246.484 108.871 246.844 108.984 247.278 108.984ZM257.391 107.059V102.909H258.776V110H257.419V108.772H257.345C257.182 109.151 256.92 109.466 256.56 109.718C256.203 109.968 255.759 110.092 255.226 110.092C254.771 110.092 254.368 109.992 254.017 109.792C253.669 109.589 253.395 109.289 253.195 108.892C252.998 108.495 252.899 108.004 252.899 107.419V102.909H254.28V107.253C254.28 107.736 254.414 108.121 254.681 108.407C254.949 108.694 255.297 108.837 255.725 108.837C255.983 108.837 256.24 108.772 256.496 108.643C256.754 108.513 256.968 108.318 257.137 108.056C257.31 107.795 257.394 107.462 257.391 107.059ZM261.411 110V102.909H262.745V104.036H262.819C262.948 103.654 263.176 103.354 263.502 103.135C263.831 102.914 264.204 102.803 264.619 102.803C264.706 102.803 264.807 102.806 264.924 102.812C265.044 102.818 265.138 102.826 265.206 102.835V104.156C265.15 104.14 265.052 104.123 264.91 104.105C264.769 104.083 264.627 104.072 264.485 104.072C264.159 104.072 263.868 104.142 263.613 104.28C263.361 104.416 263.161 104.605 263.013 104.848C262.865 105.088 262.791 105.362 262.791 105.67V110H261.411ZM274.457 110.143C273.758 110.143 273.156 109.994 272.652 109.695C272.15 109.394 271.762 108.971 271.488 108.426C271.217 107.878 271.082 107.236 271.082 106.501C271.082 105.774 271.217 105.134 271.488 104.58C271.762 104.026 272.144 103.594 272.633 103.283C273.126 102.972 273.701 102.817 274.36 102.817C274.76 102.817 275.148 102.883 275.523 103.015C275.899 103.148 276.236 103.355 276.534 103.638C276.833 103.922 277.068 104.289 277.24 104.742C277.413 105.191 277.499 105.737 277.499 106.381V106.87H271.862V105.836H276.146C276.146 105.473 276.072 105.151 275.925 104.871C275.777 104.588 275.569 104.365 275.302 104.202C275.037 104.039 274.726 103.957 274.369 103.957C273.981 103.957 273.643 104.052 273.353 104.243C273.067 104.431 272.846 104.677 272.689 104.982C272.535 105.283 272.458 105.611 272.458 105.965V106.773C272.458 107.247 272.541 107.65 272.707 107.983C272.876 108.315 273.112 108.569 273.413 108.744C273.715 108.917 274.067 109.003 274.471 109.003C274.732 109.003 274.971 108.966 275.186 108.892C275.402 108.815 275.588 108.701 275.745 108.55C275.902 108.4 276.022 108.213 276.105 107.992L277.411 108.227C277.307 108.612 277.119 108.949 276.848 109.238C276.58 109.525 276.243 109.748 275.837 109.908C275.434 110.065 274.974 110.143 274.457 110.143ZM285.673 102.909L283.102 110H281.625L279.049 102.909H280.531L282.326 108.366H282.4L284.192 102.909H285.673ZM290.566 110.143C289.867 110.143 289.265 109.994 288.76 109.695C288.259 109.394 287.871 108.971 287.597 108.426C287.326 107.878 287.191 107.236 287.191 106.501C287.191 105.774 287.326 105.134 287.597 104.58C287.871 104.026 288.253 103.594 288.742 103.283C289.234 102.972 289.81 102.817 290.469 102.817C290.869 102.817 291.256 102.883 291.632 103.015C292.007 103.148 292.344 103.355 292.643 103.638C292.941 103.922 293.177 104.289 293.349 104.742C293.522 105.191 293.608 105.737 293.608 106.381V106.87H287.971V105.836H292.255C292.255 105.473 292.181 105.151 292.034 104.871C291.886 104.588 291.678 104.365 291.41 104.202C291.146 104.039 290.835 103.957 290.478 103.957C290.09 103.957 289.752 104.052 289.462 104.243C289.176 104.431 288.954 104.677 288.797 104.982C288.644 105.283 288.567 105.611 288.567 105.965V106.773C288.567 107.247 288.65 107.65 288.816 107.983C288.985 108.315 289.221 108.569 289.522 108.744C289.824 108.917 290.176 109.003 290.579 109.003C290.841 109.003 291.08 108.966 291.295 108.892C291.51 108.815 291.697 108.701 291.854 108.55C292.01 108.4 292.131 108.213 292.214 107.992L293.52 108.227C293.415 108.612 293.228 108.949 292.957 109.238C292.689 109.525 292.352 109.748 291.946 109.908C291.543 110.065 291.083 110.143 290.566 110.143ZM295.919 110V102.909H297.253V104.036H297.327C297.457 103.654 297.684 103.354 298.011 103.135C298.34 102.914 298.712 102.803 299.128 102.803C299.214 102.803 299.316 102.806 299.432 102.812C299.552 102.818 299.646 102.826 299.714 102.835V104.156C299.659 104.14 299.56 104.123 299.419 104.105C299.277 104.083 299.135 104.072 298.994 104.072C298.668 104.072 298.377 104.142 298.121 104.28C297.869 104.416 297.669 104.605 297.521 104.848C297.374 105.088 297.3 105.362 297.3 105.67V110H295.919ZM302.777 112.659C302.571 112.659 302.383 112.642 302.214 112.608C302.044 112.578 301.918 112.544 301.835 112.507L302.168 111.376C302.42 111.443 302.645 111.473 302.842 111.463C303.039 111.454 303.212 111.38 303.363 111.242C303.517 111.103 303.652 110.877 303.769 110.563L303.94 110.092L301.346 102.909H302.823L304.619 108.412H304.693L306.489 102.909H307.97L305.048 110.946C304.913 111.316 304.74 111.628 304.531 111.884C304.322 112.142 304.073 112.336 303.783 112.465C303.494 112.594 303.159 112.659 302.777 112.659ZM313.358 102.909V104.017H309.484V102.909H313.358ZM310.523 101.21H311.904V107.918C311.904 108.186 311.944 108.387 312.024 108.523C312.104 108.655 312.207 108.746 312.333 108.795C312.462 108.841 312.602 108.864 312.753 108.864C312.864 108.864 312.961 108.857 313.044 108.841C313.127 108.826 313.191 108.814 313.238 108.804L313.487 109.945C313.407 109.975 313.293 110.006 313.145 110.037C312.998 110.071 312.813 110.089 312.591 110.092C312.228 110.098 311.89 110.034 311.576 109.898C311.262 109.763 311.008 109.554 310.814 109.271C310.62 108.987 310.523 108.632 310.523 108.204V101.21ZM317.197 105.79V110H315.817V100.545H317.179V104.063H317.267C317.433 103.682 317.687 103.378 318.028 103.154C318.37 102.929 318.816 102.817 319.367 102.817C319.853 102.817 320.278 102.917 320.641 103.117C321.007 103.317 321.291 103.615 321.491 104.012C321.694 104.406 321.795 104.899 321.795 105.49V110H320.415V105.656C320.415 105.136 320.281 104.733 320.013 104.446C319.746 104.157 319.373 104.012 318.896 104.012C318.57 104.012 318.278 104.082 318.019 104.22C317.764 104.359 317.562 104.562 317.414 104.83C317.27 105.094 317.197 105.414 317.197 105.79ZM324.417 110V102.909H325.798V110H324.417ZM325.114 101.815C324.874 101.815 324.668 101.735 324.496 101.575C324.326 101.412 324.242 101.218 324.242 100.993C324.242 100.766 324.326 100.572 324.496 100.412C324.668 100.248 324.874 100.167 325.114 100.167C325.354 100.167 325.559 100.248 325.728 100.412C325.901 100.572 325.987 100.766 325.987 100.993C325.987 101.218 325.901 101.412 325.728 101.575C325.559 101.735 325.354 101.815 325.114 101.815ZM329.815 105.79V110H328.435V102.909H329.759V104.063H329.847C330.01 103.688 330.266 103.386 330.614 103.158C330.964 102.931 331.406 102.817 331.938 102.817C332.422 102.817 332.845 102.918 333.208 103.121C333.571 103.321 333.853 103.62 334.053 104.017C334.253 104.414 334.353 104.905 334.353 105.49V110H332.973V105.656C332.973 105.142 332.839 104.74 332.571 104.451C332.303 104.159 331.935 104.012 331.468 104.012C331.147 104.012 330.863 104.082 330.614 104.22C330.367 104.359 330.172 104.562 330.027 104.83C329.886 105.094 329.815 105.414 329.815 105.79ZM339.957 112.807C339.394 112.807 338.909 112.733 338.503 112.585C338.1 112.438 337.77 112.242 337.515 111.999C337.26 111.756 337.069 111.49 336.943 111.2L338.129 110.711C338.212 110.846 338.323 110.989 338.461 111.14C338.603 111.294 338.794 111.425 339.034 111.533C339.277 111.64 339.589 111.694 339.971 111.694C340.494 111.694 340.927 111.567 341.268 111.311C341.61 111.059 341.781 110.656 341.781 110.102V108.707H341.693C341.61 108.858 341.49 109.026 341.333 109.211C341.179 109.395 340.967 109.555 340.696 109.691C340.425 109.826 340.073 109.894 339.639 109.894C339.078 109.894 338.574 109.763 338.124 109.501C337.678 109.237 337.324 108.847 337.063 108.333C336.804 107.816 336.675 107.181 336.675 106.427C336.675 105.673 336.802 105.027 337.058 104.488C337.316 103.949 337.67 103.537 338.12 103.251C338.569 102.961 339.078 102.817 339.648 102.817C340.088 102.817 340.443 102.891 340.714 103.038C340.985 103.183 341.196 103.352 341.347 103.546C341.501 103.74 341.619 103.911 341.702 104.059H341.804V102.909H343.156V110.157C343.156 110.766 343.015 111.266 342.732 111.657C342.448 112.048 342.065 112.337 341.582 112.525C341.102 112.713 340.56 112.807 339.957 112.807ZM339.943 108.749C340.34 108.749 340.676 108.657 340.95 108.472C341.227 108.284 341.436 108.016 341.577 107.669C341.722 107.318 341.794 106.898 341.794 106.408C341.794 105.931 341.724 105.511 341.582 105.148C341.441 104.785 341.233 104.502 340.959 104.299C340.685 104.092 340.346 103.989 339.943 103.989C339.528 103.989 339.182 104.097 338.905 104.312C338.628 104.525 338.418 104.814 338.277 105.18C338.138 105.547 338.069 105.956 338.069 106.408C338.069 106.873 338.14 107.281 338.281 107.632C338.423 107.983 338.632 108.257 338.909 108.453C339.189 108.65 339.534 108.749 339.943 108.749ZM352.072 110.157C351.622 110.157 351.216 110.074 350.853 109.908C350.49 109.738 350.202 109.494 349.989 109.174C349.78 108.854 349.676 108.461 349.676 107.996C349.676 107.596 349.752 107.267 349.906 107.009C350.06 106.75 350.268 106.545 350.53 106.395C350.791 106.244 351.084 106.13 351.407 106.053C351.73 105.976 352.059 105.917 352.395 105.877C352.819 105.828 353.164 105.788 353.429 105.757C353.693 105.724 353.886 105.67 354.006 105.596C354.126 105.522 354.186 105.402 354.186 105.236V105.203C354.186 104.8 354.072 104.488 353.844 104.266C353.62 104.045 353.284 103.934 352.838 103.934C352.373 103.934 352.007 104.037 351.739 104.243C351.474 104.446 351.291 104.673 351.19 104.922L349.893 104.626C350.046 104.196 350.271 103.848 350.567 103.583C350.865 103.315 351.208 103.121 351.596 103.001C351.984 102.878 352.392 102.817 352.819 102.817C353.103 102.817 353.403 102.851 353.72 102.918C354.04 102.983 354.338 103.103 354.615 103.278C354.895 103.454 355.125 103.705 355.303 104.031C355.482 104.354 355.571 104.774 355.571 105.291V110H354.223V109.031H354.167C354.078 109.209 353.944 109.384 353.766 109.557C353.587 109.729 353.358 109.872 353.078 109.986C352.798 110.1 352.462 110.157 352.072 110.157ZM352.372 109.049C352.753 109.049 353.079 108.974 353.35 108.823C353.624 108.672 353.832 108.475 353.973 108.232C354.118 107.986 354.19 107.723 354.19 107.442V106.528C354.141 106.578 354.046 106.624 353.904 106.667C353.766 106.707 353.607 106.742 353.429 106.773C353.25 106.801 353.076 106.827 352.907 106.852C352.738 106.873 352.596 106.892 352.482 106.907C352.215 106.941 351.97 106.998 351.748 107.078C351.53 107.158 351.354 107.273 351.222 107.424C351.093 107.572 351.028 107.769 351.028 108.015C351.028 108.357 351.154 108.615 351.407 108.79C351.659 108.963 351.981 109.049 352.372 109.049ZM361.162 112.807C360.599 112.807 360.114 112.733 359.708 112.585C359.305 112.438 358.976 112.242 358.72 111.999C358.465 111.756 358.274 111.49 358.148 111.2L359.334 110.711C359.417 110.846 359.528 110.989 359.667 111.14C359.808 111.294 359.999 111.425 360.239 111.533C360.482 111.64 360.795 111.694 361.176 111.694C361.699 111.694 362.132 111.567 362.473 111.311C362.815 111.059 362.986 110.656 362.986 110.102V108.707H362.898C362.815 108.858 362.695 109.026 362.538 109.211C362.384 109.395 362.172 109.555 361.901 109.691C361.63 109.826 361.278 109.894 360.844 109.894C360.284 109.894 359.779 109.763 359.33 109.501C358.883 109.237 358.529 108.847 358.268 108.333C358.009 107.816 357.88 107.181 357.88 106.427C357.88 105.673 358.008 105.027 358.263 104.488C358.522 103.949 358.876 103.537 359.325 103.251C359.774 102.961 360.284 102.817 360.853 102.817C361.293 102.817 361.649 102.891 361.919 103.038C362.19 103.183 362.401 103.352 362.552 103.546C362.706 103.74 362.824 103.911 362.907 104.059H363.009V102.909H364.362V110.157C364.362 110.766 364.22 111.266 363.937 111.657C363.654 112.048 363.271 112.337 362.787 112.525C362.307 112.713 361.766 112.807 361.162 112.807ZM361.148 108.749C361.545 108.749 361.881 108.657 362.155 108.472C362.432 108.284 362.641 108.016 362.783 107.669C362.927 107.318 363 106.898 363 106.408C363 105.931 362.929 105.511 362.787 105.148C362.646 104.785 362.438 104.502 362.164 104.299C361.89 104.092 361.552 103.989 361.148 103.989C360.733 103.989 360.387 104.097 360.11 104.312C359.833 104.525 359.624 104.814 359.482 105.18C359.343 105.547 359.274 105.956 359.274 106.408C359.274 106.873 359.345 107.281 359.487 107.632C359.628 107.983 359.837 108.257 360.114 108.453C360.394 108.65 360.739 108.749 361.148 108.749ZM370.049 110.143C369.35 110.143 368.749 109.994 368.244 109.695C367.742 109.394 367.354 108.971 367.08 108.426C366.81 107.878 366.674 107.236 366.674 106.501C366.674 105.774 366.81 105.134 367.08 104.58C367.354 104.026 367.736 103.594 368.225 103.283C368.718 102.972 369.293 102.817 369.952 102.817C370.352 102.817 370.74 102.883 371.115 103.015C371.491 103.148 371.828 103.355 372.126 103.638C372.425 103.922 372.66 104.289 372.833 104.742C373.005 105.191 373.091 105.737 373.091 106.381V106.87H367.454V105.836H371.738C371.738 105.473 371.665 105.151 371.517 104.871C371.369 104.588 371.161 104.365 370.894 104.202C370.629 104.039 370.318 103.957 369.961 103.957C369.573 103.957 369.235 104.052 368.946 104.243C368.659 104.431 368.438 104.677 368.281 104.982C368.127 105.283 368.05 105.611 368.05 105.965V106.773C368.05 107.247 368.133 107.65 368.299 107.983C368.468 108.315 368.704 108.569 369.006 108.744C369.307 108.917 369.66 109.003 370.063 109.003C370.324 109.003 370.563 108.966 370.778 108.892C370.994 108.815 371.18 108.701 371.337 108.55C371.494 108.4 371.614 108.213 371.697 107.992L373.003 108.227C372.899 108.612 372.711 108.949 372.44 109.238C372.172 109.525 371.835 109.748 371.429 109.908C371.026 110.065 370.566 110.143 370.049 110.143ZM376.783 105.79V110H375.403V102.909H376.728V104.063H376.815C376.978 103.688 377.234 103.386 377.582 103.158C377.932 102.931 378.374 102.817 378.907 102.817C379.39 102.817 379.813 102.918 380.176 103.121C380.539 103.321 380.821 103.62 381.021 104.017C381.221 104.414 381.321 104.905 381.321 105.49V110H379.941V105.656C379.941 105.142 379.807 104.74 379.539 104.451C379.271 104.159 378.903 104.012 378.436 104.012C378.116 104.012 377.831 104.082 377.582 104.22C377.335 104.359 377.14 104.562 376.995 104.83C376.854 105.094 376.783 105.414 376.783 105.79ZM386.939 110.143C386.253 110.143 385.662 109.988 385.166 109.677C384.674 109.363 384.295 108.931 384.031 108.38C383.766 107.829 383.634 107.198 383.634 106.487C383.634 105.767 383.769 105.131 384.04 104.58C384.311 104.026 384.692 103.594 385.185 103.283C385.677 102.972 386.257 102.817 386.925 102.817C387.464 102.817 387.944 102.917 388.366 103.117C388.787 103.314 389.127 103.591 389.386 103.948C389.647 104.305 389.803 104.722 389.852 105.199H388.509C388.435 104.866 388.266 104.58 388.001 104.34C387.739 104.1 387.388 103.98 386.948 103.98C386.564 103.98 386.227 104.082 385.937 104.285C385.651 104.485 385.428 104.771 385.268 105.143C385.108 105.513 385.028 105.95 385.028 106.455C385.028 106.972 385.106 107.418 385.263 107.793C385.42 108.169 385.642 108.46 385.928 108.666C386.217 108.872 386.557 108.975 386.948 108.975C387.21 108.975 387.447 108.927 387.659 108.832C387.875 108.734 388.055 108.594 388.199 108.412C388.347 108.23 388.45 108.012 388.509 107.756H389.852C389.803 108.215 389.654 108.624 389.404 108.984C389.155 109.344 388.821 109.628 388.402 109.834C387.987 110.04 387.499 110.143 386.939 110.143ZM392.981 112.659C392.774 112.659 392.587 112.642 392.417 112.608C392.248 112.578 392.122 112.544 392.039 112.507L392.371 111.376C392.624 111.443 392.848 111.473 393.045 111.463C393.242 111.454 393.416 111.38 393.567 111.242C393.721 111.103 393.856 110.877 393.973 110.563L394.144 110.092L391.55 102.909H393.027L394.823 108.412H394.897L396.692 102.909H398.174L395.252 110.946C395.117 111.316 394.944 111.628 394.735 111.884C394.526 112.142 394.276 112.336 393.987 112.465C393.698 112.594 393.362 112.659 392.981 112.659Z" fill="white"/>
<ellipse cx="280" cy="50.5" rx="45" ry="45.5" fill="white"/>
<path d="M247.48 47.704C248.259 47.704 248.936 47.816 249.512 48.04C250.088 48.264 250.627 48.6053 251.128 49.064L250.088 50.264C249.693 49.9333 249.293 49.6933 248.888 49.544C248.493 49.3947 248.067 49.32 247.608 49.32C247.096 49.32 246.68 49.4373 246.36 49.672C246.051 49.896 245.896 50.216 245.896 50.632C245.896 50.9093 245.955 51.1387 246.072 51.32C246.2 51.5013 246.424 51.672 246.744 51.832C247.064 51.992 247.539 52.168 248.168 52.36C249.256 52.7013 250.072 53.128 250.616 53.64C251.171 54.1413 251.448 54.8773 251.448 55.848C251.448 56.5093 251.277 57.096 250.936 57.608C250.605 58.12 250.125 58.52 249.496 58.808C248.867 59.096 248.12 59.24 247.256 59.24C246.413 59.24 245.656 59.1067 244.984 58.84C244.323 58.5627 243.752 58.1893 243.272 57.72L244.36 56.504C244.787 56.8667 245.229 57.144 245.688 57.336C246.147 57.5173 246.653 57.608 247.208 57.608C247.816 57.608 248.307 57.464 248.68 57.176C249.053 56.888 249.24 56.4827 249.24 55.96C249.24 55.64 249.176 55.3787 249.048 55.176C248.92 54.9627 248.701 54.776 248.392 54.616C248.083 54.4453 247.635 54.2693 247.048 54.088C245.875 53.7253 245.027 53.288 244.504 52.776C243.981 52.264 243.72 51.592 243.72 50.76C243.72 50.152 243.88 49.6187 244.2 49.16C244.52 48.7013 244.963 48.344 245.528 48.088C246.104 47.832 246.755 47.704 247.48 47.704ZM257.601 50.296C258.849 50.296 259.82 50.696 260.513 51.496C261.217 52.2853 261.569 53.3733 261.569 54.76C261.569 55.6453 261.409 56.4293 261.089 57.112C260.769 57.784 260.31 58.3067 259.713 58.68C259.116 59.0533 258.406 59.24 257.585 59.24C256.337 59.24 255.361 58.8453 254.657 58.056C253.953 57.256 253.601 56.1573 253.601 54.76C253.601 53.8747 253.761 53.096 254.081 52.424C254.401 51.752 254.86 51.2293 255.457 50.856C256.065 50.4827 256.78 50.296 257.601 50.296ZM257.601 51.848C256.374 51.848 255.761 52.8187 255.761 54.76C255.761 55.7627 255.91 56.504 256.209 56.984C256.518 57.4533 256.977 57.688 257.585 57.688C258.193 57.688 258.646 57.448 258.945 56.968C259.254 56.488 259.409 55.752 259.409 54.76C259.409 53.768 259.254 53.0373 258.945 52.568C258.646 52.088 258.198 51.848 257.601 51.848ZM266.449 59.24C265.798 59.24 265.286 59.0533 264.913 58.68C264.55 58.296 264.369 57.7573 264.369 57.064V47.144L266.417 46.92V57C266.417 57.3947 266.577 57.592 266.897 57.592C267.057 57.592 267.217 57.5653 267.377 57.512L267.809 58.952C267.382 59.144 266.929 59.24 266.449 59.24ZM276.896 59H275.12L275.008 57.816C274.698 58.296 274.33 58.6533 273.904 58.888C273.488 59.1227 272.992 59.24 272.416 59.24C271.658 59.24 271.072 59.0107 270.656 58.552C270.25 58.0827 270.048 57.4373 270.048 56.616V50.536H272.096V56.36C272.096 56.84 272.176 57.1813 272.336 57.384C272.506 57.5867 272.773 57.688 273.136 57.688C273.786 57.688 274.357 57.288 274.848 56.488V50.536H276.896V59ZM285.17 58.6C284.871 58.8133 284.535 58.9733 284.162 59.08C283.799 59.1867 283.426 59.24 283.042 59.24C282.21 59.2293 281.575 58.9947 281.138 58.536C280.711 58.0667 280.498 57.3787 280.498 56.472V52.008H279.17V50.536H280.498V48.664L282.546 48.424V50.536H284.514L284.306 52.008H282.546V56.424C282.546 56.84 282.615 57.1387 282.754 57.32C282.903 57.5013 283.133 57.592 283.442 57.592C283.751 57.592 284.087 57.4907 284.45 57.288L285.17 58.6ZM289.33 50.536V59H287.282V50.536H289.33ZM288.29 46.248C288.674 46.248 288.983 46.3707 289.218 46.616C289.463 46.8507 289.586 47.144 289.586 47.496C289.586 47.848 289.463 48.1413 289.218 48.376C288.983 48.6107 288.674 48.728 288.29 48.728C287.917 48.728 287.607 48.6107 287.362 48.376C287.127 48.1413 287.01 47.848 287.01 47.496C287.01 47.144 287.127 46.8507 287.362 46.616C287.607 46.3707 287.917 46.248 288.29 46.248ZM296.214 50.296C297.462 50.296 298.432 50.696 299.126 51.496C299.83 52.2853 300.182 53.3733 300.182 54.76C300.182 55.6453 300.022 56.4293 299.702 57.112C299.382 57.784 298.923 58.3067 298.326 58.68C297.728 59.0533 297.019 59.24 296.198 59.24C294.95 59.24 293.974 58.8453 293.27 58.056C292.566 57.256 292.214 56.1573 292.214 54.76C292.214 53.8747 292.374 53.096 292.694 52.424C293.014 51.752 293.472 51.2293 294.07 50.856C294.678 50.4827 295.392 50.296 296.214 50.296ZM296.214 51.848C294.987 51.848 294.374 52.8187 294.374 54.76C294.374 55.7627 294.523 56.504 294.822 56.984C295.131 57.4533 295.59 57.688 296.198 57.688C296.806 57.688 297.259 57.448 297.558 56.968C297.867 56.488 298.022 55.752 298.022 54.76C298.022 53.768 297.867 53.0373 297.558 52.568C297.259 52.088 296.811 51.848 296.214 51.848ZM307.573 50.296C308.331 50.296 308.917 50.5253 309.333 50.984C309.76 51.432 309.973 52.0613 309.973 52.872V59H307.925V53.192C307.925 52.6907 307.835 52.3387 307.653 52.136C307.483 51.9333 307.227 51.832 306.885 51.832C306.533 51.832 306.213 51.944 305.925 52.168C305.648 52.3813 305.376 52.696 305.109 53.112V59H303.061V50.536H304.837L304.997 51.64C305.691 50.744 306.549 50.296 307.573 50.296ZM315.99 50.296C317.132 50.296 318.134 50.632 318.998 51.304L318.198 52.504C317.473 52.0453 316.764 51.816 316.07 51.816C315.665 51.816 315.35 51.896 315.126 52.056C314.902 52.2053 314.79 52.408 314.79 52.664C314.79 52.856 314.838 53.016 314.934 53.144C315.03 53.272 315.201 53.3947 315.446 53.512C315.702 53.6187 316.076 53.7413 316.566 53.88C317.484 54.1253 318.161 54.4507 318.598 54.856C319.046 55.2613 319.27 55.8267 319.27 56.552C319.27 57.3947 318.929 58.056 318.246 58.536C317.564 59.0053 316.716 59.24 315.702 59.24C315.009 59.24 314.374 59.1333 313.798 58.92C313.233 58.7067 312.742 58.4133 312.326 58.04L313.35 56.888C314.086 57.4427 314.854 57.72 315.654 57.72C316.113 57.72 316.476 57.6293 316.742 57.448C317.02 57.2667 317.158 57.016 317.158 56.696C317.158 56.4507 317.105 56.2587 316.998 56.12C316.902 55.9707 316.721 55.8427 316.454 55.736C316.198 55.6187 315.793 55.48 315.238 55.32C314.374 55.0853 313.74 54.76 313.334 54.344C312.929 53.9173 312.726 53.3893 312.726 52.76C312.726 52.2907 312.86 51.8693 313.126 51.496C313.404 51.1227 313.788 50.8293 314.278 50.616C314.78 50.4027 315.35 50.296 315.99 50.296Z" fill="black"/>
<ellipse cx="187" cy="50.5" rx="45" ry="45.5" fill="white"/>
<path d="M95 8L137 8.00022V93.0002H92V49.0002H81L95 8Z" fill="white"/>
<path d="M344 10L386 10.0002V95.0002H341V51.0002H330L344 10Z" fill="white"/>
<rect x="402" y="97" width="18" height="18" fill="white"/>
</svg>
