<svg width="500" height="250" viewBox="0 0 500 250" fill="none" xmlns="http://www.w3.org/2000/svg">
<rect width="500" height="250" fill="black"/>
<path d="M237.257 177.659C237.051 177.659 236.863 177.642 236.694 177.608C236.524 177.578 236.398 177.544 236.315 177.507L236.648 176.376C236.9 176.443 237.125 176.473 237.322 176.463C237.519 176.454 237.692 176.38 237.843 176.242C237.997 176.103 238.132 175.877 238.249 175.563L238.42 175.092L235.826 167.909H237.303L239.099 173.412H239.173L240.969 167.909H242.45L239.528 175.946C239.393 176.316 239.22 176.628 239.011 176.884C238.802 177.142 238.553 177.336 238.263 177.465C237.974 177.594 237.639 177.659 237.257 177.659ZM247.273 175.143C246.609 175.143 246.028 174.991 245.533 174.686C245.037 174.381 244.653 173.955 244.379 173.407C244.105 172.859 243.968 172.219 243.968 171.487C243.968 170.751 244.105 170.108 244.379 169.557C244.653 169.006 245.037 168.578 245.533 168.274C246.028 167.969 246.609 167.817 247.273 167.817C247.938 167.817 248.518 167.969 249.014 168.274C249.509 168.578 249.894 169.006 250.168 169.557C250.442 170.108 250.579 170.751 250.579 171.487C250.579 172.219 250.442 172.859 250.168 173.407C249.894 173.955 249.509 174.381 249.014 174.686C248.518 174.991 247.938 175.143 247.273 175.143ZM247.278 173.984C247.709 173.984 248.066 173.871 248.349 173.643C248.632 173.415 248.841 173.112 248.977 172.733C249.115 172.355 249.185 171.938 249.185 171.482C249.185 171.03 249.115 170.614 248.977 170.236C248.841 169.854 248.632 169.548 248.349 169.317C248.066 169.086 247.709 168.971 247.278 168.971C246.844 168.971 246.484 169.086 246.198 169.317C245.915 169.548 245.704 169.854 245.565 170.236C245.43 170.614 245.362 171.03 245.362 171.482C245.362 171.938 245.43 172.355 245.565 172.733C245.704 173.112 245.915 173.415 246.198 173.643C246.484 173.871 246.844 173.984 247.278 173.984ZM257.391 172.059V167.909H258.776V175H257.419V173.772H257.345C257.182 174.151 256.92 174.466 256.56 174.718C256.203 174.968 255.759 175.092 255.226 175.092C254.771 175.092 254.368 174.992 254.017 174.792C253.669 174.589 253.395 174.289 253.195 173.892C252.998 173.495 252.899 173.004 252.899 172.419V167.909H254.28V172.253C254.28 172.736 254.414 173.121 254.681 173.407C254.949 173.694 255.297 173.837 255.725 173.837C255.983 173.837 256.24 173.772 256.496 173.643C256.754 173.513 256.968 173.318 257.137 173.056C257.31 172.795 257.394 172.462 257.391 172.059ZM261.411 175V167.909H262.745V169.036H262.819C262.948 168.654 263.176 168.354 263.502 168.135C263.831 167.914 264.204 167.803 264.619 167.803C264.706 167.803 264.807 167.806 264.924 167.812C265.044 167.818 265.138 167.826 265.206 167.835V169.156C265.15 169.14 265.052 169.123 264.91 169.105C264.769 169.083 264.627 169.072 264.485 169.072C264.159 169.072 263.868 169.142 263.613 169.28C263.361 169.416 263.161 169.605 263.013 169.848C262.865 170.088 262.791 170.362 262.791 170.67V175H261.411ZM274.457 175.143C273.758 175.143 273.156 174.994 272.652 174.695C272.15 174.394 271.762 173.971 271.488 173.426C271.217 172.878 271.082 172.236 271.082 171.501C271.082 170.774 271.217 170.134 271.488 169.58C271.762 169.026 272.144 168.594 272.633 168.283C273.126 167.972 273.701 167.817 274.36 167.817C274.76 167.817 275.148 167.883 275.523 168.015C275.899 168.148 276.236 168.355 276.534 168.638C276.833 168.922 277.068 169.289 277.24 169.742C277.413 170.191 277.499 170.737 277.499 171.381V171.87H271.862V170.836H276.146C276.146 170.473 276.072 170.151 275.925 169.871C275.777 169.588 275.569 169.365 275.302 169.202C275.037 169.039 274.726 168.957 274.369 168.957C273.981 168.957 273.643 169.052 273.353 169.243C273.067 169.431 272.846 169.677 272.689 169.982C272.535 170.283 272.458 170.611 272.458 170.965V171.773C272.458 172.247 272.541 172.65 272.707 172.983C272.876 173.315 273.112 173.569 273.413 173.744C273.715 173.917 274.067 174.003 274.471 174.003C274.732 174.003 274.971 173.966 275.186 173.892C275.402 173.815 275.588 173.701 275.745 173.55C275.902 173.4 276.022 173.213 276.105 172.992L277.411 173.227C277.307 173.612 277.119 173.949 276.848 174.238C276.58 174.525 276.243 174.748 275.837 174.908C275.434 175.065 274.974 175.143 274.457 175.143ZM285.673 167.909L283.102 175H281.625L279.049 167.909H280.531L282.326 173.366H282.4L284.192 167.909H285.673ZM290.566 175.143C289.867 175.143 289.265 174.994 288.76 174.695C288.259 174.394 287.871 173.971 287.597 173.426C287.326 172.878 287.191 172.236 287.191 171.501C287.191 170.774 287.326 170.134 287.597 169.58C287.871 169.026 288.253 168.594 288.742 168.283C289.234 167.972 289.81 167.817 290.469 167.817C290.869 167.817 291.256 167.883 291.632 168.015C292.007 168.148 292.344 168.355 292.643 168.638C292.941 168.922 293.177 169.289 293.349 169.742C293.522 170.191 293.608 170.737 293.608 171.381V171.87H287.971V170.836H292.255C292.255 170.473 292.181 170.151 292.034 169.871C291.886 169.588 291.678 169.365 291.41 169.202C291.146 169.039 290.835 168.957 290.478 168.957C290.09 168.957 289.752 169.052 289.462 169.243C289.176 169.431 288.954 169.677 288.797 169.982C288.644 170.283 288.567 170.611 288.567 170.965V171.773C288.567 172.247 288.65 172.65 288.816 172.983C288.985 173.315 289.221 173.569 289.522 173.744C289.824 173.917 290.176 174.003 290.579 174.003C290.841 174.003 291.08 173.966 291.295 173.892C291.51 173.815 291.697 173.701 291.854 173.55C292.01 173.4 292.131 173.213 292.214 172.992L293.52 173.227C293.415 173.612 293.228 173.949 292.957 174.238C292.689 174.525 292.352 174.748 291.946 174.908C291.543 175.065 291.083 175.143 290.566 175.143ZM295.919 175V167.909H297.253V169.036H297.327C297.457 168.654 297.684 168.354 298.011 168.135C298.34 167.914 298.712 167.803 299.128 167.803C299.214 167.803 299.316 167.806 299.432 167.812C299.552 167.818 299.646 167.826 299.714 167.835V169.156C299.659 169.14 299.56 169.123 299.419 169.105C299.277 169.083 299.135 169.072 298.994 169.072C298.668 169.072 298.377 169.142 298.121 169.28C297.869 169.416 297.669 169.605 297.521 169.848C297.374 170.088 297.3 170.362 297.3 170.67V175H295.919ZM302.777 177.659C302.571 177.659 302.383 177.642 302.214 177.608C302.044 177.578 301.918 177.544 301.835 177.507L302.168 176.376C302.42 176.443 302.645 176.473 302.842 176.463C303.039 176.454 303.212 176.38 303.363 176.242C303.517 176.103 303.652 175.877 303.769 175.563L303.94 175.092L301.346 167.909H302.823L304.619 173.412H304.693L306.489 167.909H307.97L305.048 175.946C304.913 176.316 304.74 176.628 304.531 176.884C304.322 177.142 304.073 177.336 303.783 177.465C303.494 177.594 303.159 177.659 302.777 177.659ZM313.358 167.909V169.017H309.484V167.909H313.358ZM310.523 166.21H311.904V172.918C311.904 173.186 311.944 173.387 312.024 173.523C312.104 173.655 312.207 173.746 312.333 173.795C312.462 173.841 312.602 173.864 312.753 173.864C312.864 173.864 312.961 173.857 313.044 173.841C313.127 173.826 313.191 173.814 313.238 173.804L313.487 174.945C313.407 174.975 313.293 175.006 313.145 175.037C312.998 175.071 312.813 175.089 312.591 175.092C312.228 175.098 311.89 175.034 311.576 174.898C311.262 174.763 311.008 174.554 310.814 174.271C310.62 173.987 310.523 173.632 310.523 173.204V166.21ZM317.197 170.79V175H315.817V165.545H317.179V169.063H317.267C317.433 168.682 317.687 168.378 318.028 168.154C318.37 167.929 318.816 167.817 319.367 167.817C319.853 167.817 320.278 167.917 320.641 168.117C321.007 168.317 321.291 168.615 321.491 169.012C321.694 169.406 321.795 169.899 321.795 170.49V175H320.415V170.656C320.415 170.136 320.281 169.733 320.013 169.446C319.746 169.157 319.373 169.012 318.896 169.012C318.57 169.012 318.278 169.082 318.019 169.22C317.764 169.359 317.562 169.562 317.414 169.83C317.27 170.094 317.197 170.414 317.197 170.79ZM324.417 175V167.909H325.798V175H324.417ZM325.114 166.815C324.874 166.815 324.668 166.735 324.496 166.575C324.326 166.412 324.242 166.218 324.242 165.993C324.242 165.766 324.326 165.572 324.496 165.412C324.668 165.248 324.874 165.167 325.114 165.167C325.354 165.167 325.559 165.248 325.728 165.412C325.901 165.572 325.987 165.766 325.987 165.993C325.987 166.218 325.901 166.412 325.728 166.575C325.559 166.735 325.354 166.815 325.114 166.815ZM329.815 170.79V175H328.435V167.909H329.759V169.063H329.847C330.01 168.688 330.266 168.386 330.614 168.158C330.964 167.931 331.406 167.817 331.938 167.817C332.422 167.817 332.845 167.918 333.208 168.121C333.571 168.321 333.853 168.62 334.053 169.017C334.253 169.414 334.353 169.905 334.353 170.49V175H332.973V170.656C332.973 170.142 332.839 169.74 332.571 169.451C332.303 169.159 331.935 169.012 331.468 169.012C331.147 169.012 330.863 169.082 330.614 169.22C330.367 169.359 330.172 169.562 330.027 169.83C329.886 170.094 329.815 170.414 329.815 170.79ZM339.957 177.807C339.394 177.807 338.909 177.733 338.503 177.585C338.1 177.438 337.77 177.242 337.515 176.999C337.26 176.756 337.069 176.49 336.943 176.2L338.129 175.711C338.212 175.846 338.323 175.989 338.461 176.14C338.603 176.294 338.794 176.425 339.034 176.533C339.277 176.64 339.589 176.694 339.971 176.694C340.494 176.694 340.927 176.567 341.268 176.311C341.61 176.059 341.781 175.656 341.781 175.102V173.707H341.693C341.61 173.858 341.49 174.026 341.333 174.211C341.179 174.395 340.967 174.555 340.696 174.691C340.425 174.826 340.073 174.894 339.639 174.894C339.078 174.894 338.574 174.763 338.124 174.501C337.678 174.237 337.324 173.847 337.063 173.333C336.804 172.816 336.675 172.181 336.675 171.427C336.675 170.673 336.802 170.027 337.058 169.488C337.316 168.949 337.67 168.537 338.12 168.251C338.569 167.961 339.078 167.817 339.648 167.817C340.088 167.817 340.443 167.891 340.714 168.038C340.985 168.183 341.196 168.352 341.347 168.546C341.501 168.74 341.619 168.911 341.702 169.059H341.804V167.909H343.156V175.157C343.156 175.766 343.015 176.266 342.732 176.657C342.448 177.048 342.065 177.337 341.582 177.525C341.102 177.713 340.56 177.807 339.957 177.807ZM339.943 173.749C340.34 173.749 340.676 173.657 340.95 173.472C341.227 173.284 341.436 173.016 341.577 172.669C341.722 172.318 341.794 171.898 341.794 171.408C341.794 170.931 341.724 170.511 341.582 170.148C341.441 169.785 341.233 169.502 340.959 169.299C340.685 169.092 340.346 168.989 339.943 168.989C339.528 168.989 339.182 169.097 338.905 169.312C338.628 169.525 338.418 169.814 338.277 170.18C338.138 170.547 338.069 170.956 338.069 171.408C338.069 171.873 338.14 172.281 338.281 172.632C338.423 172.983 338.632 173.257 338.909 173.453C339.189 173.65 339.534 173.749 339.943 173.749ZM352.072 175.157C351.622 175.157 351.216 175.074 350.853 174.908C350.49 174.738 350.202 174.494 349.989 174.174C349.78 173.854 349.676 173.461 349.676 172.996C349.676 172.596 349.752 172.267 349.906 172.009C350.06 171.75 350.268 171.545 350.53 171.395C350.791 171.244 351.084 171.13 351.407 171.053C351.73 170.976 352.059 170.917 352.395 170.877C352.819 170.828 353.164 170.788 353.429 170.757C353.693 170.724 353.886 170.67 354.006 170.596C354.126 170.522 354.186 170.402 354.186 170.236V170.203C354.186 169.8 354.072 169.488 353.844 169.266C353.62 169.045 353.284 168.934 352.838 168.934C352.373 168.934 352.007 169.037 351.739 169.243C351.474 169.446 351.291 169.673 351.19 169.922L349.893 169.626C350.046 169.196 350.271 168.848 350.567 168.583C350.865 168.315 351.208 168.121 351.596 168.001C351.984 167.878 352.392 167.817 352.819 167.817C353.103 167.817 353.403 167.851 353.72 167.918C354.04 167.983 354.338 168.103 354.615 168.278C354.895 168.454 355.125 168.705 355.303 169.031C355.482 169.354 355.571 169.774 355.571 170.291V175H354.223V174.031H354.167C354.078 174.209 353.944 174.384 353.766 174.557C353.587 174.729 353.358 174.872 353.078 174.986C352.798 175.1 352.462 175.157 352.072 175.157ZM352.372 174.049C352.753 174.049 353.079 173.974 353.35 173.823C353.624 173.672 353.832 173.475 353.973 173.232C354.118 172.986 354.19 172.723 354.19 172.442V171.528C354.141 171.578 354.046 171.624 353.904 171.667C353.766 171.707 353.607 171.742 353.429 171.773C353.25 171.801 353.076 171.827 352.907 171.852C352.738 171.873 352.596 171.892 352.482 171.907C352.215 171.941 351.97 171.998 351.748 172.078C351.53 172.158 351.354 172.273 351.222 172.424C351.093 172.572 351.028 172.769 351.028 173.015C351.028 173.357 351.154 173.615 351.407 173.79C351.659 173.963 351.981 174.049 352.372 174.049ZM361.162 177.807C360.599 177.807 360.114 177.733 359.708 177.585C359.305 177.438 358.976 177.242 358.72 176.999C358.465 176.756 358.274 176.49 358.148 176.2L359.334 175.711C359.417 175.846 359.528 175.989 359.667 176.14C359.808 176.294 359.999 176.425 360.239 176.533C360.482 176.64 360.795 176.694 361.176 176.694C361.699 176.694 362.132 176.567 362.473 176.311C362.815 176.059 362.986 175.656 362.986 175.102V173.707H362.898C362.815 173.858 362.695 174.026 362.538 174.211C362.384 174.395 362.172 174.555 361.901 174.691C361.63 174.826 361.278 174.894 360.844 174.894C360.284 174.894 359.779 174.763 359.33 174.501C358.883 174.237 358.529 173.847 358.268 173.333C358.009 172.816 357.88 172.181 357.88 171.427C357.88 170.673 358.008 170.027 358.263 169.488C358.522 168.949 358.876 168.537 359.325 168.251C359.774 167.961 360.284 167.817 360.853 167.817C361.293 167.817 361.649 167.891 361.919 168.038C362.19 168.183 362.401 168.352 362.552 168.546C362.706 168.74 362.824 168.911 362.907 169.059H363.009V167.909H364.362V175.157C364.362 175.766 364.22 176.266 363.937 176.657C363.654 177.048 363.271 177.337 362.787 177.525C362.307 177.713 361.766 177.807 361.162 177.807ZM361.148 173.749C361.545 173.749 361.881 173.657 362.155 173.472C362.432 173.284 362.641 173.016 362.783 172.669C362.927 172.318 363 171.898 363 171.408C363 170.931 362.929 170.511 362.787 170.148C362.646 169.785 362.438 169.502 362.164 169.299C361.89 169.092 361.552 168.989 361.148 168.989C360.733 168.989 360.387 169.097 360.11 169.312C359.833 169.525 359.624 169.814 359.482 170.18C359.343 170.547 359.274 170.956 359.274 171.408C359.274 171.873 359.345 172.281 359.487 172.632C359.628 172.983 359.837 173.257 360.114 173.453C360.394 173.65 360.739 173.749 361.148 173.749ZM370.049 175.143C369.35 175.143 368.749 174.994 368.244 174.695C367.742 174.394 367.354 173.971 367.08 173.426C366.81 172.878 366.674 172.236 366.674 171.501C366.674 170.774 366.81 170.134 367.08 169.58C367.354 169.026 367.736 168.594 368.225 168.283C368.718 167.972 369.293 167.817 369.952 167.817C370.352 167.817 370.74 167.883 371.115 168.015C371.491 168.148 371.828 168.355 372.126 168.638C372.425 168.922 372.66 169.289 372.833 169.742C373.005 170.191 373.091 170.737 373.091 171.381V171.87H367.454V170.836H371.738C371.738 170.473 371.665 170.151 371.517 169.871C371.369 169.588 371.161 169.365 370.894 169.202C370.629 169.039 370.318 168.957 369.961 168.957C369.573 168.957 369.235 169.052 368.946 169.243C368.659 169.431 368.438 169.677 368.281 169.982C368.127 170.283 368.05 170.611 368.05 170.965V171.773C368.05 172.247 368.133 172.65 368.299 172.983C368.468 173.315 368.704 173.569 369.006 173.744C369.307 173.917 369.66 174.003 370.063 174.003C370.324 174.003 370.563 173.966 370.778 173.892C370.994 173.815 371.18 173.701 371.337 173.55C371.494 173.4 371.614 173.213 371.697 172.992L373.003 173.227C372.899 173.612 372.711 173.949 372.44 174.238C372.172 174.525 371.835 174.748 371.429 174.908C371.026 175.065 370.566 175.143 370.049 175.143ZM376.783 170.79V175H375.403V167.909H376.728V169.063H376.815C376.978 168.688 377.234 168.386 377.582 168.158C377.932 167.931 378.374 167.817 378.907 167.817C379.39 167.817 379.813 167.918 380.176 168.121C380.539 168.321 380.821 168.62 381.021 169.017C381.221 169.414 381.321 169.905 381.321 170.49V175H379.941V170.656C379.941 170.142 379.807 169.74 379.539 169.451C379.271 169.159 378.903 169.012 378.436 169.012C378.116 169.012 377.831 169.082 377.582 169.22C377.335 169.359 377.14 169.562 376.995 169.83C376.854 170.094 376.783 170.414 376.783 170.79ZM386.939 175.143C386.253 175.143 385.662 174.988 385.166 174.677C384.674 174.363 384.295 173.931 384.031 173.38C383.766 172.829 383.634 172.198 383.634 171.487C383.634 170.767 383.769 170.131 384.04 169.58C384.311 169.026 384.692 168.594 385.185 168.283C385.677 167.972 386.257 167.817 386.925 167.817C387.464 167.817 387.944 167.917 388.366 168.117C388.787 168.314 389.127 168.591 389.386 168.948C389.647 169.305 389.803 169.722 389.852 170.199H388.509C388.435 169.866 388.266 169.58 388.001 169.34C387.739 169.1 387.388 168.98 386.948 168.98C386.564 168.98 386.227 169.082 385.937 169.285C385.651 169.485 385.428 169.771 385.268 170.143C385.108 170.513 385.028 170.95 385.028 171.455C385.028 171.972 385.106 172.418 385.263 172.793C385.42 173.169 385.642 173.46 385.928 173.666C386.217 173.872 386.557 173.975 386.948 173.975C387.21 173.975 387.447 173.927 387.659 173.832C387.875 173.734 388.055 173.594 388.199 173.412C388.347 173.23 388.45 173.012 388.509 172.756H389.852C389.803 173.215 389.654 173.624 389.404 173.984C389.155 174.344 388.821 174.628 388.402 174.834C387.987 175.04 387.499 175.143 386.939 175.143ZM392.981 177.659C392.774 177.659 392.587 177.642 392.417 177.608C392.248 177.578 392.122 177.544 392.039 177.507L392.371 176.376C392.624 176.443 392.848 176.473 393.045 176.463C393.242 176.454 393.416 176.38 393.567 176.242C393.721 176.103 393.856 175.877 393.973 175.563L394.144 175.092L391.55 167.909H393.027L394.823 173.412H394.897L396.692 167.909H398.174L395.252 175.946C395.117 176.316 394.944 176.628 394.735 176.884C394.526 177.142 394.276 177.336 393.987 177.465C393.698 177.594 393.362 177.659 392.981 177.659Z" fill="white"/>
<ellipse cx="280" cy="115.5" rx="45" ry="45.5" fill="white"/>
<path d="M247.48 112.704C248.259 112.704 248.936 112.816 249.512 113.04C250.088 113.264 250.627 113.605 251.128 114.064L250.088 115.264C249.693 114.933 249.293 114.693 248.888 114.544C248.493 114.395 248.067 114.32 247.608 114.32C247.096 114.32 246.68 114.437 246.36 114.672C246.051 114.896 245.896 115.216 245.896 115.632C245.896 115.909 245.955 116.139 246.072 116.32C246.2 116.501 246.424 116.672 246.744 116.832C247.064 116.992 247.539 117.168 248.168 117.36C249.256 117.701 250.072 118.128 250.616 118.64C251.171 119.141 251.448 119.877 251.448 120.848C251.448 121.509 251.277 122.096 250.936 122.608C250.605 123.12 250.125 123.52 249.496 123.808C248.867 124.096 248.12 124.24 247.256 124.24C246.413 124.24 245.656 124.107 244.984 123.84C244.323 123.563 243.752 123.189 243.272 122.72L244.36 121.504C244.787 121.867 245.229 122.144 245.688 122.336C246.147 122.517 246.653 122.608 247.208 122.608C247.816 122.608 248.307 122.464 248.68 122.176C249.053 121.888 249.24 121.483 249.24 120.96C249.24 120.64 249.176 120.379 249.048 120.176C248.92 119.963 248.701 119.776 248.392 119.616C248.083 119.445 247.635 119.269 247.048 119.088C245.875 118.725 245.027 118.288 244.504 117.776C243.981 117.264 243.72 116.592 243.72 115.76C243.72 115.152 243.88 114.619 244.2 114.16C244.52 113.701 244.963 113.344 245.528 113.088C246.104 112.832 246.755 112.704 247.48 112.704ZM257.601 115.296C258.849 115.296 259.82 115.696 260.513 116.496C261.217 117.285 261.569 118.373 261.569 119.76C261.569 120.645 261.409 121.429 261.089 122.112C260.769 122.784 260.31 123.307 259.713 123.68C259.116 124.053 258.406 124.24 257.585 124.24C256.337 124.24 255.361 123.845 254.657 123.056C253.953 122.256 253.601 121.157 253.601 119.76C253.601 118.875 253.761 118.096 254.081 117.424C254.401 116.752 254.86 116.229 255.457 115.856C256.065 115.483 256.78 115.296 257.601 115.296ZM257.601 116.848C256.374 116.848 255.761 117.819 255.761 119.76C255.761 120.763 255.91 121.504 256.209 121.984C256.518 122.453 256.977 122.688 257.585 122.688C258.193 122.688 258.646 122.448 258.945 121.968C259.254 121.488 259.409 120.752 259.409 119.76C259.409 118.768 259.254 118.037 258.945 117.568C258.646 117.088 258.198 116.848 257.601 116.848ZM266.449 124.24C265.798 124.24 265.286 124.053 264.913 123.68C264.55 123.296 264.369 122.757 264.369 122.064V112.144L266.417 111.92V122C266.417 122.395 266.577 122.592 266.897 122.592C267.057 122.592 267.217 122.565 267.377 122.512L267.809 123.952C267.382 124.144 266.929 124.24 266.449 124.24ZM276.896 124H275.12L275.008 122.816C274.698 123.296 274.33 123.653 273.904 123.888C273.488 124.123 272.992 124.24 272.416 124.24C271.658 124.24 271.072 124.011 270.656 123.552C270.25 123.083 270.048 122.437 270.048 121.616V115.536H272.096V121.36C272.096 121.84 272.176 122.181 272.336 122.384C272.506 122.587 272.773 122.688 273.136 122.688C273.786 122.688 274.357 122.288 274.848 121.488V115.536H276.896V124ZM285.17 123.6C284.871 123.813 284.535 123.973 284.162 124.08C283.799 124.187 283.426 124.24 283.042 124.24C282.21 124.229 281.575 123.995 281.138 123.536C280.711 123.067 280.498 122.379 280.498 121.472V117.008H279.17V115.536H280.498V113.664L282.546 113.424V115.536H284.514L284.306 117.008H282.546V121.424C282.546 121.84 282.615 122.139 282.754 122.32C282.903 122.501 283.133 122.592 283.442 122.592C283.751 122.592 284.087 122.491 284.45 122.288L285.17 123.6ZM289.33 115.536V124H287.282V115.536H289.33ZM288.29 111.248C288.674 111.248 288.983 111.371 289.218 111.616C289.463 111.851 289.586 112.144 289.586 112.496C289.586 112.848 289.463 113.141 289.218 113.376C288.983 113.611 288.674 113.728 288.29 113.728C287.917 113.728 287.607 113.611 287.362 113.376C287.127 113.141 287.01 112.848 287.01 112.496C287.01 112.144 287.127 111.851 287.362 111.616C287.607 111.371 287.917 111.248 288.29 111.248ZM296.214 115.296C297.462 115.296 298.432 115.696 299.126 116.496C299.83 117.285 300.182 118.373 300.182 119.76C300.182 120.645 300.022 121.429 299.702 122.112C299.382 122.784 298.923 123.307 298.326 123.68C297.728 124.053 297.019 124.24 296.198 124.24C294.95 124.24 293.974 123.845 293.27 123.056C292.566 122.256 292.214 121.157 292.214 119.76C292.214 118.875 292.374 118.096 292.694 117.424C293.014 116.752 293.472 116.229 294.07 115.856C294.678 115.483 295.392 115.296 296.214 115.296ZM296.214 116.848C294.987 116.848 294.374 117.819 294.374 119.76C294.374 120.763 294.523 121.504 294.822 121.984C295.131 122.453 295.59 122.688 296.198 122.688C296.806 122.688 297.259 122.448 297.558 121.968C297.867 121.488 298.022 120.752 298.022 119.76C298.022 118.768 297.867 118.037 297.558 117.568C297.259 117.088 296.811 116.848 296.214 116.848ZM307.573 115.296C308.331 115.296 308.917 115.525 309.333 115.984C309.76 116.432 309.973 117.061 309.973 117.872V124H307.925V118.192C307.925 117.691 307.835 117.339 307.653 117.136C307.483 116.933 307.227 116.832 306.885 116.832C306.533 116.832 306.213 116.944 305.925 117.168C305.648 117.381 305.376 117.696 305.109 118.112V124H303.061V115.536H304.837L304.997 116.64C305.691 115.744 306.549 115.296 307.573 115.296ZM315.99 115.296C317.132 115.296 318.134 115.632 318.998 116.304L318.198 117.504C317.473 117.045 316.764 116.816 316.07 116.816C315.665 116.816 315.35 116.896 315.126 117.056C314.902 117.205 314.79 117.408 314.79 117.664C314.79 117.856 314.838 118.016 314.934 118.144C315.03 118.272 315.201 118.395 315.446 118.512C315.702 118.619 316.076 118.741 316.566 118.88C317.484 119.125 318.161 119.451 318.598 119.856C319.046 120.261 319.27 120.827 319.27 121.552C319.27 122.395 318.929 123.056 318.246 123.536C317.564 124.005 316.716 124.24 315.702 124.24C315.009 124.24 314.374 124.133 313.798 123.92C313.233 123.707 312.742 123.413 312.326 123.04L313.35 121.888C314.086 122.443 314.854 122.72 315.654 122.72C316.113 122.72 316.476 122.629 316.742 122.448C317.02 122.267 317.158 122.016 317.158 121.696C317.158 121.451 317.105 121.259 316.998 121.12C316.902 120.971 316.721 120.843 316.454 120.736C316.198 120.619 315.793 120.48 315.238 120.32C314.374 120.085 313.74 119.76 313.334 119.344C312.929 118.917 312.726 118.389 312.726 117.76C312.726 117.291 312.86 116.869 313.126 116.496C313.404 116.123 313.788 115.829 314.278 115.616C314.78 115.403 315.35 115.296 315.99 115.296Z" fill="black"/>
<ellipse cx="187" cy="115.5" rx="45" ry="45.5" fill="white"/>
<path d="M95 73L137 73.0002V158H92V114H81L95 73Z" fill="white"/>
<path d="M344 75L386 75.0002V160H341V116H330L344 75Z" fill="white"/>
<rect x="402" y="162" width="18" height="18" fill="white"/>
</svg>
