<svg width="500" height="500" viewBox="0 0 500 500" fill="none" xmlns="http://www.w3.org/2000/svg">
<rect width="500" height="500" fill="black"/>
<path d="M245.257 299.659C245.051 299.659 244.863 299.642 244.694 299.608C244.524 299.578 244.398 299.544 244.315 299.507L244.648 298.376C244.9 298.443 245.125 298.473 245.322 298.463C245.519 298.454 245.692 298.38 245.843 298.242C245.997 298.103 246.132 297.877 246.249 297.563L246.42 297.092L243.826 289.909H245.303L247.099 295.412H247.173L248.969 289.909H250.45L247.528 297.946C247.393 298.316 247.22 298.628 247.011 298.884C246.802 299.142 246.553 299.336 246.263 299.465C245.974 299.594 245.639 299.659 245.257 299.659ZM255.273 297.143C254.609 297.143 254.028 296.991 253.533 296.686C253.037 296.381 252.653 295.955 252.379 295.407C252.105 294.859 251.968 294.219 251.968 293.487C251.968 292.751 252.105 292.108 252.379 291.557C252.653 291.006 253.037 290.578 253.533 290.274C254.028 289.969 254.609 289.817 255.273 289.817C255.938 289.817 256.518 289.969 257.014 290.274C257.509 290.578 257.894 291.006 258.168 291.557C258.442 292.108 258.579 292.751 258.579 293.487C258.579 294.219 258.442 294.859 258.168 295.407C257.894 295.955 257.509 296.381 257.014 296.686C256.518 296.991 255.938 297.143 255.273 297.143ZM255.278 295.984C255.709 295.984 256.066 295.871 256.349 295.643C256.632 295.415 256.841 295.112 256.977 294.733C257.115 294.355 257.185 293.938 257.185 293.482C257.185 293.03 257.115 292.614 256.977 292.236C256.841 291.854 256.632 291.548 256.349 291.317C256.066 291.086 255.709 290.971 255.278 290.971C254.844 290.971 254.484 291.086 254.198 291.317C253.915 291.548 253.704 291.854 253.565 292.236C253.43 292.614 253.362 293.03 253.362 293.482C253.362 293.938 253.43 294.355 253.565 294.733C253.704 295.112 253.915 295.415 254.198 295.643C254.484 295.871 254.844 295.984 255.278 295.984ZM265.391 294.059V289.909H266.776V297H265.419V295.772H265.345C265.182 296.151 264.92 296.466 264.56 296.718C264.203 296.968 263.759 297.092 263.226 297.092C262.771 297.092 262.368 296.992 262.017 296.792C261.669 296.589 261.395 296.289 261.195 295.892C260.998 295.495 260.899 295.004 260.899 294.419V289.909H262.28V294.253C262.28 294.736 262.414 295.121 262.681 295.407C262.949 295.694 263.297 295.837 263.725 295.837C263.983 295.837 264.24 295.772 264.496 295.643C264.754 295.513 264.968 295.318 265.137 295.056C265.31 294.795 265.394 294.462 265.391 294.059ZM269.411 297V289.909H270.745V291.036H270.819C270.948 290.654 271.176 290.354 271.502 290.135C271.831 289.914 272.204 289.803 272.619 289.803C272.706 289.803 272.807 289.806 272.924 289.812C273.044 289.818 273.138 289.826 273.206 289.835V291.156C273.15 291.14 273.052 291.123 272.91 291.105C272.769 291.083 272.627 291.072 272.485 291.072C272.159 291.072 271.868 291.142 271.613 291.28C271.361 291.416 271.161 291.605 271.013 291.848C270.865 292.088 270.791 292.362 270.791 292.67V297H269.411ZM282.457 297.143C281.758 297.143 281.156 296.994 280.652 296.695C280.15 296.394 279.762 295.971 279.488 295.426C279.217 294.878 279.082 294.236 279.082 293.501C279.082 292.774 279.217 292.134 279.488 291.58C279.762 291.026 280.144 290.594 280.633 290.283C281.126 289.972 281.701 289.817 282.36 289.817C282.76 289.817 283.148 289.883 283.523 290.015C283.899 290.148 284.236 290.355 284.534 290.638C284.833 290.922 285.068 291.289 285.24 291.742C285.413 292.191 285.499 292.737 285.499 293.381V293.87H279.862V292.836H284.146C284.146 292.473 284.072 292.151 283.925 291.871C283.777 291.588 283.569 291.365 283.302 291.202C283.037 291.039 282.726 290.957 282.369 290.957C281.981 290.957 281.643 291.052 281.353 291.243C281.067 291.431 280.846 291.677 280.689 291.982C280.535 292.283 280.458 292.611 280.458 292.965V293.773C280.458 294.247 280.541 294.65 280.707 294.983C280.876 295.315 281.112 295.569 281.413 295.744C281.715 295.917 282.067 296.003 282.471 296.003C282.732 296.003 282.971 295.966 283.186 295.892C283.402 295.815 283.588 295.701 283.745 295.55C283.902 295.4 284.022 295.213 284.105 294.992L285.411 295.227C285.307 295.612 285.119 295.949 284.848 296.238C284.58 296.525 284.243 296.748 283.837 296.908C283.434 297.065 282.974 297.143 282.457 297.143ZM293.673 289.909L291.102 297H289.625L287.049 289.909H288.531L290.326 295.366H290.4L292.192 289.909H293.673ZM298.566 297.143C297.867 297.143 297.265 296.994 296.76 296.695C296.259 296.394 295.871 295.971 295.597 295.426C295.326 294.878 295.191 294.236 295.191 293.501C295.191 292.774 295.326 292.134 295.597 291.58C295.871 291.026 296.253 290.594 296.742 290.283C297.234 289.972 297.81 289.817 298.469 289.817C298.869 289.817 299.256 289.883 299.632 290.015C300.007 290.148 300.344 290.355 300.643 290.638C300.941 290.922 301.177 291.289 301.349 291.742C301.522 292.191 301.608 292.737 301.608 293.381V293.87H295.971V292.836H300.255C300.255 292.473 300.181 292.151 300.034 291.871C299.886 291.588 299.678 291.365 299.41 291.202C299.146 291.039 298.835 290.957 298.478 290.957C298.09 290.957 297.752 291.052 297.462 291.243C297.176 291.431 296.954 291.677 296.797 291.982C296.644 292.283 296.567 292.611 296.567 292.965V293.773C296.567 294.247 296.65 294.65 296.816 294.983C296.985 295.315 297.221 295.569 297.522 295.744C297.824 295.917 298.176 296.003 298.579 296.003C298.841 296.003 299.08 295.966 299.295 295.892C299.51 295.815 299.697 295.701 299.854 295.55C300.01 295.4 300.131 295.213 300.214 294.992L301.52 295.227C301.415 295.612 301.228 295.949 300.957 296.238C300.689 296.525 300.352 296.748 299.946 296.908C299.543 297.065 299.083 297.143 298.566 297.143ZM303.919 297V289.909H305.253V291.036H305.327C305.457 290.654 305.684 290.354 306.011 290.135C306.34 289.914 306.712 289.803 307.128 289.803C307.214 289.803 307.316 289.806 307.432 289.812C307.552 289.818 307.646 289.826 307.714 289.835V291.156C307.659 291.14 307.56 291.123 307.419 291.105C307.277 291.083 307.135 291.072 306.994 291.072C306.668 291.072 306.377 291.142 306.121 291.28C305.869 291.416 305.669 291.605 305.521 291.848C305.374 292.088 305.3 292.362 305.3 292.67V297H303.919ZM310.777 299.659C310.571 299.659 310.383 299.642 310.214 299.608C310.044 299.578 309.918 299.544 309.835 299.507L310.168 298.376C310.42 298.443 310.645 298.473 310.842 298.463C311.039 298.454 311.212 298.38 311.363 298.242C311.517 298.103 311.652 297.877 311.769 297.563L311.94 297.092L309.346 289.909H310.823L312.619 295.412H312.693L314.489 289.909H315.97L313.048 297.946C312.913 298.316 312.74 298.628 312.531 298.884C312.322 299.142 312.073 299.336 311.783 299.465C311.494 299.594 311.159 299.659 310.777 299.659ZM321.358 289.909V291.017H317.484V289.909H321.358ZM318.523 288.21H319.904V294.918C319.904 295.186 319.944 295.387 320.024 295.523C320.104 295.655 320.207 295.746 320.333 295.795C320.462 295.841 320.602 295.864 320.753 295.864C320.864 295.864 320.961 295.857 321.044 295.841C321.127 295.826 321.191 295.814 321.238 295.804L321.487 296.945C321.407 296.975 321.293 297.006 321.145 297.037C320.998 297.071 320.813 297.089 320.591 297.092C320.228 297.098 319.89 297.034 319.576 296.898C319.262 296.763 319.008 296.554 318.814 296.271C318.62 295.987 318.523 295.632 318.523 295.204V288.21ZM325.197 292.79V297H323.817V287.545H325.179V291.063H325.267C325.433 290.682 325.687 290.378 326.028 290.154C326.37 289.929 326.816 289.817 327.367 289.817C327.853 289.817 328.278 289.917 328.641 290.117C329.007 290.317 329.291 290.615 329.491 291.012C329.694 291.406 329.795 291.899 329.795 292.49V297H328.415V292.656C328.415 292.136 328.281 291.733 328.013 291.446C327.746 291.157 327.373 291.012 326.896 291.012C326.57 291.012 326.278 291.082 326.019 291.22C325.764 291.359 325.562 291.562 325.414 291.83C325.27 292.094 325.197 292.414 325.197 292.79ZM332.417 297V289.909H333.798V297H332.417ZM333.114 288.815C332.874 288.815 332.668 288.735 332.496 288.575C332.326 288.412 332.242 288.218 332.242 287.993C332.242 287.766 332.326 287.572 332.496 287.412C332.668 287.248 332.874 287.167 333.114 287.167C333.354 287.167 333.559 287.248 333.728 287.412C333.901 287.572 333.987 287.766 333.987 287.993C333.987 288.218 333.901 288.412 333.728 288.575C333.559 288.735 333.354 288.815 333.114 288.815ZM337.815 292.79V297H336.435V289.909H337.759V291.063H337.847C338.01 290.688 338.266 290.386 338.614 290.158C338.964 289.931 339.406 289.817 339.938 289.817C340.422 289.817 340.845 289.918 341.208 290.121C341.571 290.321 341.853 290.62 342.053 291.017C342.253 291.414 342.353 291.905 342.353 292.49V297H340.973V292.656C340.973 292.142 340.839 291.74 340.571 291.451C340.303 291.159 339.935 291.012 339.468 291.012C339.147 291.012 338.863 291.082 338.614 291.22C338.367 291.359 338.172 291.562 338.027 291.83C337.886 292.094 337.815 292.414 337.815 292.79ZM347.957 299.807C347.394 299.807 346.909 299.733 346.503 299.585C346.1 299.438 345.77 299.242 345.515 298.999C345.26 298.756 345.069 298.49 344.943 298.2L346.129 297.711C346.212 297.846 346.323 297.989 346.461 298.14C346.603 298.294 346.794 298.425 347.034 298.533C347.277 298.64 347.589 298.694 347.971 298.694C348.494 298.694 348.927 298.567 349.268 298.311C349.61 298.059 349.781 297.656 349.781 297.102V295.707H349.693C349.61 295.858 349.49 296.026 349.333 296.211C349.179 296.395 348.967 296.555 348.696 296.691C348.425 296.826 348.073 296.894 347.639 296.894C347.078 296.894 346.574 296.763 346.124 296.501C345.678 296.237 345.324 295.847 345.063 295.333C344.804 294.816 344.675 294.181 344.675 293.427C344.675 292.673 344.802 292.027 345.058 291.488C345.316 290.949 345.67 290.537 346.12 290.251C346.569 289.961 347.078 289.817 347.648 289.817C348.088 289.817 348.443 289.891 348.714 290.038C348.985 290.183 349.196 290.352 349.347 290.546C349.501 290.74 349.619 290.911 349.702 291.059H349.804V289.909H351.156V297.157C351.156 297.766 351.015 298.266 350.732 298.657C350.448 299.048 350.065 299.337 349.582 299.525C349.102 299.713 348.56 299.807 347.957 299.807ZM347.943 295.749C348.34 295.749 348.676 295.657 348.95 295.472C349.227 295.284 349.436 295.016 349.577 294.669C349.722 294.318 349.794 293.898 349.794 293.408C349.794 292.931 349.724 292.511 349.582 292.148C349.441 291.785 349.233 291.502 348.959 291.299C348.685 291.092 348.346 290.989 347.943 290.989C347.528 290.989 347.182 291.097 346.905 291.312C346.628 291.525 346.418 291.814 346.277 292.18C346.138 292.547 346.069 292.956 346.069 293.408C346.069 293.873 346.14 294.281 346.281 294.632C346.423 294.983 346.632 295.257 346.909 295.453C347.189 295.65 347.534 295.749 347.943 295.749ZM360.072 297.157C359.622 297.157 359.216 297.074 358.853 296.908C358.49 296.738 358.202 296.494 357.989 296.174C357.78 295.854 357.676 295.461 357.676 294.996C357.676 294.596 357.752 294.267 357.906 294.009C358.06 293.75 358.268 293.545 358.53 293.395C358.791 293.244 359.084 293.13 359.407 293.053C359.73 292.976 360.059 292.917 360.395 292.877C360.819 292.828 361.164 292.788 361.429 292.757C361.693 292.724 361.886 292.67 362.006 292.596C362.126 292.522 362.186 292.402 362.186 292.236V292.203C362.186 291.8 362.072 291.488 361.844 291.266C361.62 291.045 361.284 290.934 360.838 290.934C360.373 290.934 360.007 291.037 359.739 291.243C359.474 291.446 359.291 291.673 359.19 291.922L357.893 291.626C358.046 291.196 358.271 290.848 358.567 290.583C358.865 290.315 359.208 290.121 359.596 290.001C359.984 289.878 360.392 289.817 360.819 289.817C361.103 289.817 361.403 289.851 361.72 289.918C362.04 289.983 362.338 290.103 362.615 290.278C362.895 290.454 363.125 290.705 363.303 291.031C363.482 291.354 363.571 291.774 363.571 292.291V297H362.223V296.031H362.167C362.078 296.209 361.944 296.384 361.766 296.557C361.587 296.729 361.358 296.872 361.078 296.986C360.798 297.1 360.462 297.157 360.072 297.157ZM360.372 296.049C360.753 296.049 361.079 295.974 361.35 295.823C361.624 295.672 361.832 295.475 361.973 295.232C362.118 294.986 362.19 294.723 362.19 294.442V293.528C362.141 293.578 362.046 293.624 361.904 293.667C361.766 293.707 361.607 293.742 361.429 293.773C361.25 293.801 361.076 293.827 360.907 293.852C360.738 293.873 360.596 293.892 360.482 293.907C360.215 293.941 359.97 293.998 359.748 294.078C359.53 294.158 359.354 294.273 359.222 294.424C359.093 294.572 359.028 294.769 359.028 295.015C359.028 295.357 359.154 295.615 359.407 295.79C359.659 295.963 359.981 296.049 360.372 296.049ZM369.162 299.807C368.599 299.807 368.114 299.733 367.708 299.585C367.305 299.438 366.976 299.242 366.72 298.999C366.465 298.756 366.274 298.49 366.148 298.2L367.334 297.711C367.417 297.846 367.528 297.989 367.667 298.14C367.808 298.294 367.999 298.425 368.239 298.533C368.482 298.64 368.795 298.694 369.176 298.694C369.699 298.694 370.132 298.567 370.473 298.311C370.815 298.059 370.986 297.656 370.986 297.102V295.707H370.898C370.815 295.858 370.695 296.026 370.538 296.211C370.384 296.395 370.172 296.555 369.901 296.691C369.63 296.826 369.278 296.894 368.844 296.894C368.284 296.894 367.779 296.763 367.33 296.501C366.883 296.237 366.529 295.847 366.268 295.333C366.009 294.816 365.88 294.181 365.88 293.427C365.88 292.673 366.008 292.027 366.263 291.488C366.522 290.949 366.876 290.537 367.325 290.251C367.774 289.961 368.284 289.817 368.853 289.817C369.293 289.817 369.649 289.891 369.919 290.038C370.19 290.183 370.401 290.352 370.552 290.546C370.706 290.74 370.824 290.911 370.907 291.059H371.009V289.909H372.362V297.157C372.362 297.766 372.22 298.266 371.937 298.657C371.654 299.048 371.271 299.337 370.787 299.525C370.307 299.713 369.766 299.807 369.162 299.807ZM369.148 295.749C369.545 295.749 369.881 295.657 370.155 295.472C370.432 295.284 370.641 295.016 370.783 294.669C370.927 294.318 371 293.898 371 293.408C371 292.931 370.929 292.511 370.787 292.148C370.646 291.785 370.438 291.502 370.164 291.299C369.89 291.092 369.552 290.989 369.148 290.989C368.733 290.989 368.387 291.097 368.11 291.312C367.833 291.525 367.624 291.814 367.482 292.18C367.343 292.547 367.274 292.956 367.274 293.408C367.274 293.873 367.345 294.281 367.487 294.632C367.628 294.983 367.837 295.257 368.114 295.453C368.394 295.65 368.739 295.749 369.148 295.749ZM378.049 297.143C377.35 297.143 376.749 296.994 376.244 296.695C375.742 296.394 375.354 295.971 375.08 295.426C374.81 294.878 374.674 294.236 374.674 293.501C374.674 292.774 374.81 292.134 375.08 291.58C375.354 291.026 375.736 290.594 376.225 290.283C376.718 289.972 377.293 289.817 377.952 289.817C378.352 289.817 378.74 289.883 379.115 290.015C379.491 290.148 379.828 290.355 380.126 290.638C380.425 290.922 380.66 291.289 380.833 291.742C381.005 292.191 381.091 292.737 381.091 293.381V293.87H375.454V292.836H379.738C379.738 292.473 379.665 292.151 379.517 291.871C379.369 291.588 379.161 291.365 378.894 291.202C378.629 291.039 378.318 290.957 377.961 290.957C377.573 290.957 377.235 291.052 376.946 291.243C376.659 291.431 376.438 291.677 376.281 291.982C376.127 292.283 376.05 292.611 376.05 292.965V293.773C376.05 294.247 376.133 294.65 376.299 294.983C376.468 295.315 376.704 295.569 377.006 295.744C377.307 295.917 377.66 296.003 378.063 296.003C378.324 296.003 378.563 295.966 378.778 295.892C378.994 295.815 379.18 295.701 379.337 295.55C379.494 295.4 379.614 295.213 379.697 294.992L381.003 295.227C380.899 295.612 380.711 295.949 380.44 296.238C380.172 296.525 379.835 296.748 379.429 296.908C379.026 297.065 378.566 297.143 378.049 297.143ZM384.783 292.79V297H383.403V289.909H384.728V291.063H384.815C384.978 290.688 385.234 290.386 385.582 290.158C385.932 289.931 386.374 289.817 386.907 289.817C387.39 289.817 387.813 289.918 388.176 290.121C388.539 290.321 388.821 290.62 389.021 291.017C389.221 291.414 389.321 291.905 389.321 292.49V297H387.941V292.656C387.941 292.142 387.807 291.74 387.539 291.451C387.271 291.159 386.903 291.012 386.436 291.012C386.116 291.012 385.831 291.082 385.582 291.22C385.335 291.359 385.14 291.562 384.995 291.83C384.854 292.094 384.783 292.414 384.783 292.79ZM394.939 297.143C394.253 297.143 393.662 296.988 393.166 296.677C392.674 296.363 392.295 295.931 392.031 295.38C391.766 294.829 391.634 294.198 391.634 293.487C391.634 292.767 391.769 292.131 392.04 291.58C392.311 291.026 392.692 290.594 393.185 290.283C393.677 289.972 394.257 289.817 394.925 289.817C395.464 289.817 395.944 289.917 396.366 290.117C396.787 290.314 397.127 290.591 397.386 290.948C397.647 291.305 397.803 291.722 397.852 292.199H396.509C396.435 291.866 396.266 291.58 396.001 291.34C395.739 291.1 395.388 290.98 394.948 290.98C394.564 290.98 394.227 291.082 393.937 291.285C393.651 291.485 393.428 291.771 393.268 292.143C393.108 292.513 393.028 292.95 393.028 293.455C393.028 293.972 393.106 294.418 393.263 294.793C393.42 295.169 393.642 295.46 393.928 295.666C394.217 295.872 394.557 295.975 394.948 295.975C395.21 295.975 395.447 295.927 395.659 295.832C395.875 295.734 396.055 295.594 396.199 295.412C396.347 295.23 396.45 295.012 396.509 294.756H397.852C397.803 295.215 397.654 295.624 397.404 295.984C397.155 296.344 396.821 296.628 396.402 296.834C395.987 297.04 395.499 297.143 394.939 297.143ZM400.981 299.659C400.774 299.659 400.587 299.642 400.417 299.608C400.248 299.578 400.122 299.544 400.039 299.507L400.371 298.376C400.624 298.443 400.848 298.473 401.045 298.463C401.242 298.454 401.416 298.38 401.567 298.242C401.721 298.103 401.856 297.877 401.973 297.563L402.144 297.092L399.55 289.909H401.027L402.823 295.412H402.897L404.692 289.909H406.174L403.252 297.946C403.117 298.316 402.944 298.628 402.735 298.884C402.526 299.142 402.276 299.336 401.987 299.465C401.698 299.594 401.362 299.659 400.981 299.659Z" fill="white"/>
<ellipse cx="288" cy="237.5" rx="45" ry="45.5" fill="white"/>
<path d="M255.48 234.704C256.259 234.704 256.936 234.816 257.512 235.04C258.088 235.264 258.627 235.605 259.128 236.064L258.088 237.264C257.693 236.933 257.293 236.693 256.888 236.544C256.493 236.395 256.067 236.32 255.608 236.32C255.096 236.32 254.68 236.437 254.36 236.672C254.051 236.896 253.896 237.216 253.896 237.632C253.896 237.909 253.955 238.139 254.072 238.32C254.2 238.501 254.424 238.672 254.744 238.832C255.064 238.992 255.539 239.168 256.168 239.36C257.256 239.701 258.072 240.128 258.616 240.64C259.171 241.141 259.448 241.877 259.448 242.848C259.448 243.509 259.277 244.096 258.936 244.608C258.605 245.12 258.125 245.52 257.496 245.808C256.867 246.096 256.12 246.24 255.256 246.24C254.413 246.24 253.656 246.107 252.984 245.84C252.323 245.563 251.752 245.189 251.272 244.72L252.36 243.504C252.787 243.867 253.229 244.144 253.688 244.336C254.147 244.517 254.653 244.608 255.208 244.608C255.816 244.608 256.307 244.464 256.68 244.176C257.053 243.888 257.24 243.483 257.24 242.96C257.24 242.64 257.176 242.379 257.048 242.176C256.92 241.963 256.701 241.776 256.392 241.616C256.083 241.445 255.635 241.269 255.048 241.088C253.875 240.725 253.027 240.288 252.504 239.776C251.981 239.264 251.72 238.592 251.72 237.76C251.72 237.152 251.88 236.619 252.2 236.16C252.52 235.701 252.963 235.344 253.528 235.088C254.104 234.832 254.755 234.704 255.48 234.704ZM265.601 237.296C266.849 237.296 267.82 237.696 268.513 238.496C269.217 239.285 269.569 240.373 269.569 241.76C269.569 242.645 269.409 243.429 269.089 244.112C268.769 244.784 268.31 245.307 267.713 245.68C267.116 246.053 266.406 246.24 265.585 246.24C264.337 246.24 263.361 245.845 262.657 245.056C261.953 244.256 261.601 243.157 261.601 241.76C261.601 240.875 261.761 240.096 262.081 239.424C262.401 238.752 262.86 238.229 263.457 237.856C264.065 237.483 264.78 237.296 265.601 237.296ZM265.601 238.848C264.374 238.848 263.761 239.819 263.761 241.76C263.761 242.763 263.91 243.504 264.209 243.984C264.518 244.453 264.977 244.688 265.585 244.688C266.193 244.688 266.646 244.448 266.945 243.968C267.254 243.488 267.409 242.752 267.409 241.76C267.409 240.768 267.254 240.037 266.945 239.568C266.646 239.088 266.198 238.848 265.601 238.848ZM274.449 246.24C273.798 246.24 273.286 246.053 272.913 245.68C272.55 245.296 272.369 244.757 272.369 244.064V234.144L274.417 233.92V244C274.417 244.395 274.577 244.592 274.897 244.592C275.057 244.592 275.217 244.565 275.377 244.512L275.809 245.952C275.382 246.144 274.929 246.24 274.449 246.24ZM284.896 246H283.12L283.008 244.816C282.698 245.296 282.33 245.653 281.904 245.888C281.488 246.123 280.992 246.24 280.416 246.24C279.658 246.24 279.072 246.011 278.656 245.552C278.25 245.083 278.048 244.437 278.048 243.616V237.536H280.096V243.36C280.096 243.84 280.176 244.181 280.336 244.384C280.506 244.587 280.773 244.688 281.136 244.688C281.786 244.688 282.357 244.288 282.848 243.488V237.536H284.896V246ZM293.17 245.6C292.871 245.813 292.535 245.973 292.162 246.08C291.799 246.187 291.426 246.24 291.042 246.24C290.21 246.229 289.575 245.995 289.138 245.536C288.711 245.067 288.498 244.379 288.498 243.472V239.008H287.17V237.536H288.498V235.664L290.546 235.424V237.536H292.514L292.306 239.008H290.546V243.424C290.546 243.84 290.615 244.139 290.754 244.32C290.903 244.501 291.133 244.592 291.442 244.592C291.751 244.592 292.087 244.491 292.45 244.288L293.17 245.6ZM297.33 237.536V246H295.282V237.536H297.33ZM296.29 233.248C296.674 233.248 296.983 233.371 297.218 233.616C297.463 233.851 297.586 234.144 297.586 234.496C297.586 234.848 297.463 235.141 297.218 235.376C296.983 235.611 296.674 235.728 296.29 235.728C295.917 235.728 295.607 235.611 295.362 235.376C295.127 235.141 295.01 234.848 295.01 234.496C295.01 234.144 295.127 233.851 295.362 233.616C295.607 233.371 295.917 233.248 296.29 233.248ZM304.214 237.296C305.462 237.296 306.432 237.696 307.126 238.496C307.83 239.285 308.182 240.373 308.182 241.76C308.182 242.645 308.022 243.429 307.702 244.112C307.382 244.784 306.923 245.307 306.326 245.68C305.728 246.053 305.019 246.24 304.198 246.24C302.95 246.24 301.974 245.845 301.27 245.056C300.566 244.256 300.214 243.157 300.214 241.76C300.214 240.875 300.374 240.096 300.694 239.424C301.014 238.752 301.472 238.229 302.07 237.856C302.678 237.483 303.392 237.296 304.214 237.296ZM304.214 238.848C302.987 238.848 302.374 239.819 302.374 241.76C302.374 242.763 302.523 243.504 302.822 243.984C303.131 244.453 303.59 244.688 304.198 244.688C304.806 244.688 305.259 244.448 305.558 243.968C305.867 243.488 306.022 242.752 306.022 241.76C306.022 240.768 305.867 240.037 305.558 239.568C305.259 239.088 304.811 238.848 304.214 238.848ZM315.573 237.296C316.331 237.296 316.917 237.525 317.333 237.984C317.76 238.432 317.973 239.061 317.973 239.872V246H315.925V240.192C315.925 239.691 315.835 239.339 315.653 239.136C315.483 238.933 315.227 238.832 314.885 238.832C314.533 238.832 314.213 238.944 313.925 239.168C313.648 239.381 313.376 239.696 313.109 240.112V246H311.061V237.536H312.837L312.997 238.64C313.691 237.744 314.549 237.296 315.573 237.296ZM323.99 237.296C325.132 237.296 326.134 237.632 326.998 238.304L326.198 239.504C325.473 239.045 324.764 238.816 324.07 238.816C323.665 238.816 323.35 238.896 323.126 239.056C322.902 239.205 322.79 239.408 322.79 239.664C322.79 239.856 322.838 240.016 322.934 240.144C323.03 240.272 323.201 240.395 323.446 240.512C323.702 240.619 324.076 240.741 324.566 240.88C325.484 241.125 326.161 241.451 326.598 241.856C327.046 242.261 327.27 242.827 327.27 243.552C327.27 244.395 326.929 245.056 326.246 245.536C325.564 246.005 324.716 246.24 323.702 246.24C323.009 246.24 322.374 246.133 321.798 245.92C321.233 245.707 320.742 245.413 320.326 245.04L321.35 243.888C322.086 244.443 322.854 244.72 323.654 244.72C324.113 244.72 324.476 244.629 324.742 244.448C325.02 244.267 325.158 244.016 325.158 243.696C325.158 243.451 325.105 243.259 324.998 243.12C324.902 242.971 324.721 242.843 324.454 242.736C324.198 242.619 323.793 242.48 323.238 242.32C322.374 242.085 321.74 241.76 321.334 241.344C320.929 240.917 320.726 240.389 320.726 239.76C320.726 239.291 320.86 238.869 321.126 238.496C321.404 238.123 321.788 237.829 322.278 237.616C322.78 237.403 323.35 237.296 323.99 237.296Z" fill="black"/>
<ellipse cx="195" cy="237.5" rx="45" ry="45.5" fill="white"/>
<path d="M103 195L145 195V280H100V236H89L103 195Z" fill="white"/>
<path d="M352 197L394 197V282H349V238H338L352 197Z" fill="white"/>
<rect x="410" y="284" width="18" height="18" fill="white"/>
</svg>
